M48
INCH,TZ
T01C.016
;LEADER: 12 
;HEADER: 
;CODE  : ASCII 
;FILE  : DRILL-1-2.drl for  ... layers TOP and BOTTOM
;DESIGN: PROIECT1_PACT_DIMA_DARIA_ELENA.brd
;T01 Holesize 1. = 16.000000 Tolerance = +0.000000/-0.000000 PLATED MILS Quantity = 22
%
G90
T01
X45000Y91000
Y114000
X44000Y27000
X10063Y49063
X37937Y66000
X113937Y127937
X75000Y124000
X99000Y12000
X54000Y20000
X101048Y116000
X112000Y97000
X114300Y84300
X102000Y22000
X68000Y85000
X52000Y149000
X57000Y70000
X71000Y118000
X96937Y108937
X25000Y54209
X50000Y43000
X90000Y45000
X62000
M30
