G04 ================== begin FILE IDENTIFICATION RECORD ==================*
G04 Layout Name:  PROIECT1_PACT_DIMA_DARIA_ELENA.brd*
G04 Film Name:    FAB*
G04 File Format:  Gerber RS274X*
G04 File Origin:  Cadence Allegro 17.2-S025*
G04 Origin Date:  Sat Jan 13 16:25:15 2024*
G04 *
G04 Layer:  MANUFACTURING/XSECTION_CHART*
G04 Layer:  MANUFACTURING/NCLEGEND-1-2*
G04 Layer:  MANUFACTURING/NCDRILL_LEGEND*
G04 Layer:  MANUFACTURING/NCDRILL_FIGURE*
G04 Layer:  DRAWING FORMAT/DRAWING_ORIGIN*
G04 Layer:  BOARD GEOMETRY/OUTLINE*
G04 Layer:  BOARD GEOMETRY/DIMENSION*
G04 *
G04 Offset:    (0.01 0.00)*
G04 Mirror:    No*
G04 Mode:      Positive*
G04 Rotation:  0*
G04 FullContactRelief:  No*
G04 UndefLineWidth:     10.00*
G04 ================== end FILE IDENTIFICATION RECORD ====================*
%FSLAX25Y25*MOIN*%
%IR0*IPPOS*OFA0.01000B0.00000*MIA0B0*SFA1.00000B1.00000*%
%AMMACRO10*
1,1,.01,.025,0.0*
20,1,.01,.025,0.0,-.025,0.0,0.0*
1,1,.01,-.025,0.0*
1,1,.01,0.0,.025*
20,1,.01,0.0,.025,0.0,-.025,0.0*
1,1,.01,0.0,-.025*
%
%ADD10MACRO10*%
%AMMACRO11*
1,1,.01,.008,0.0*
20,1,.01,.008,0.0,.007878,-.001389,0.0*
1,1,.01,.007878,-.001389*
20,1,.01,.007878,-.001389,.007518,-.002736,0.0*
1,1,.01,.007518,-.002736*
20,1,.01,.007518,-.002736,.006928,-.004,0.0*
1,1,.01,.006928,-.004*
20,1,.01,.006928,-.004,.006128,-.005142,0.0*
1,1,.01,.006128,-.005142*
20,1,.01,.006128,-.005142,.005142,-.006128,0.0*
1,1,.01,.005142,-.006128*
20,1,.01,.005142,-.006128,.004,-.006928,0.0*
1,1,.01,.004,-.006928*
20,1,.01,.004,-.006928,.002736,-.007518,0.0*
1,1,.01,.002736,-.007518*
20,1,.01,.002736,-.007518,.001389,-.007878,0.0*
1,1,.01,.001389,-.007878*
20,1,.01,.001389,-.007878,0.0,-.008,0.0*
1,1,.01,0.0,-.008*
20,1,.01,0.0,-.008,-.001389,-.007878,0.0*
1,1,.01,-.001389,-.007878*
20,1,.01,-.001389,-.007878,-.002736,-.007518,0.0*
1,1,.01,-.002736,-.007518*
20,1,.01,-.002736,-.007518,-.004,-.006928,0.0*
1,1,.01,-.004,-.006928*
20,1,.01,-.004,-.006928,-.005142,-.006128,0.0*
1,1,.01,-.005142,-.006128*
20,1,.01,-.005142,-.006128,-.006128,-.005142,0.0*
1,1,.01,-.006128,-.005142*
20,1,.01,-.006128,-.005142,-.006928,-.004,0.0*
1,1,.01,-.006928,-.004*
20,1,.01,-.006928,-.004,-.007518,-.002736,0.0*
1,1,.01,-.007518,-.002736*
20,1,.01,-.007518,-.002736,-.007878,-.001389,0.0*
1,1,.01,-.007878,-.001389*
20,1,.01,-.007878,-.001389,-.008,0.0,0.0*
1,1,.01,-.008,0.0*
20,1,.01,-.008,0.0,-.007878,.001389,0.0*
1,1,.01,-.007878,.001389*
20,1,.01,-.007878,.001389,-.007518,.002736,0.0*
1,1,.01,-.007518,.002736*
20,1,.01,-.007518,.002736,-.006928,.004,0.0*
1,1,.01,-.006928,.004*
20,1,.01,-.006928,.004,-.006128,.005142,0.0*
1,1,.01,-.006128,.005142*
20,1,.01,-.006128,.005142,-.005142,.006128,0.0*
1,1,.01,-.005142,.006128*
20,1,.01,-.005142,.006128,-.004,.006928,0.0*
1,1,.01,-.004,.006928*
20,1,.01,-.004,.006928,-.002736,.007518,0.0*
1,1,.01,-.002736,.007518*
20,1,.01,-.002736,.007518,-.001389,.007878,0.0*
1,1,.01,-.001389,.007878*
20,1,.01,-.001389,.007878,0.0,.008,0.0*
1,1,.01,0.0,.008*
20,1,.01,0.0,.008,.001389,.007878,0.0*
1,1,.01,.001389,.007878*
20,1,.01,.001389,.007878,.002736,.007518,0.0*
1,1,.01,.002736,.007518*
20,1,.01,.002736,.007518,.004,.006928,0.0*
1,1,.01,.004,.006928*
20,1,.01,.004,.006928,.005142,.006128,0.0*
1,1,.01,.005142,.006128*
20,1,.01,.005142,.006128,.006128,.005142,0.0*
1,1,.01,.006128,.005142*
20,1,.01,.006128,.005142,.006928,.004,0.0*
1,1,.01,.006928,.004*
20,1,.01,.006928,.004,.007518,.002736,0.0*
1,1,.01,.007518,.002736*
20,1,.01,.007518,.002736,.007878,.001389,0.0*
1,1,.01,.007878,.001389*
20,1,.01,.007878,.001389,.008,0.0,0.0*
1,1,.01,.008,0.0*
1,1,.01,.004,0.0*
20,1,.01,.004,0.0,-.004,0.0,0.0*
1,1,.01,-.004,0.0*
1,1,.01,0.0,.004*
20,1,.01,0.0,.004,0.0,-.004,0.0*
1,1,.01,0.0,-.004*
%
%ADD11MACRO11*%
%ADD12C,.01*%
%ADD13C,.00591*%
G75*
%LPD*%
G75*
G36*
G01X569646Y362183D02*
Y357844D01*
X572146D01*
Y168123D01*
X569646D01*
Y163784D01*
X584646D01*
Y168123D01*
X582146D01*
Y357844D01*
X584646D01*
Y362183D01*
X569646D01*
G37*
G36*
G01X549646Y163785D02*
Y168124D01*
X609646D01*
Y163785D01*
X549646D01*
G37*
G36*
G01Y357844D02*
Y362183D01*
X609646D01*
Y357844D01*
X549646D01*
G37*
G54D10*
X0Y0D03*
G54D11*
X10063Y49063D03*
X44000Y27000D03*
X25000Y54209D03*
X37937Y66000D03*
X45000Y91000D03*
Y114000D03*
X54000Y20000D03*
X62000Y45000D03*
X50000Y43000D03*
X57000Y70000D03*
X68000Y85000D03*
X71000Y118000D03*
X75000Y124000D03*
X52000Y149000D03*
X102000Y22000D03*
X99000Y12000D03*
X90000Y45000D03*
X96937Y108937D03*
X101048Y116000D03*
X114300Y84300D03*
X112000Y97000D03*
X113937Y127937D03*
X238950Y21500D03*
G54D12*
G01X194000Y9000D02*
Y109000D01*
X690000D01*
Y9000D01*
X194000D01*
G01X205005Y40250D02*
Y52750D01*
X210895D01*
G01X208725Y46708D02*
X205005D01*
G01X218490Y52750D02*
X222210D01*
G01X220350D02*
Y40250D01*
G01X218490D02*
X222210D01*
G01X233680Y46500D02*
X236780D01*
Y42750D01*
X235850Y41500D01*
X234765Y40667D01*
X233215Y40250D01*
X231665Y40667D01*
X230580Y41500D01*
X229650Y42750D01*
X229030Y44208D01*
X228720Y45875D01*
Y47333D01*
X229030Y48583D01*
X229650Y50042D01*
X230580Y51292D01*
X231510Y52125D01*
X232750Y52750D01*
X233835D01*
X235075Y52333D01*
X236005Y51500D01*
G01X241740Y52750D02*
Y43792D01*
X242360Y41916D01*
X243600Y40667D01*
X245150Y40250D01*
X246700Y40667D01*
X247940Y41916D01*
X248560Y43792D01*
Y52750D01*
G01X254450Y40250D02*
Y52750D01*
X258325D01*
X259565Y52125D01*
X260340Y51292D01*
X260650Y49625D01*
X260340Y47958D01*
X259410Y46917D01*
X258325Y46292D01*
X254450D01*
G01X258325D02*
X260650Y40250D01*
G01X273050D02*
X266850D01*
Y52750D01*
X273050D01*
G01X270570Y46708D02*
X266850D01*
G01X194000Y34000D02*
X690000D01*
G01X194000Y59000D02*
X690000D01*
G01X194000Y84000D02*
X690000D01*
G01X283900Y59000D02*
Y9000D01*
G01X283590Y90250D02*
Y102750D01*
X286690D01*
X287930Y102125D01*
X288860Y101292D01*
X289635Y100042D01*
X290255Y98583D01*
X290410Y96500D01*
X290255Y94417D01*
X289635Y92958D01*
X288860Y91708D01*
X287930Y90875D01*
X286690Y90250D01*
X283590D01*
G01X296300D02*
Y102750D01*
X300175D01*
X301415Y102125D01*
X302190Y101292D01*
X302500Y99625D01*
X302190Y97958D01*
X301260Y96917D01*
X300175Y96292D01*
X296300D01*
G01X300175D02*
X302500Y90250D01*
G01X309940Y102750D02*
X313660D01*
G01X311800D02*
Y90250D01*
G01X309940D02*
X313660D01*
G01X321100Y102750D02*
Y90250D01*
X327300D01*
G01X333500Y102750D02*
Y90250D01*
X339700D01*
G01X364810Y101708D02*
X363880Y102333D01*
X362795Y102750D01*
X361555D01*
X360160Y102125D01*
X359075Y101083D01*
X358300Y99833D01*
X357680Y97750D01*
X357525Y95875D01*
X357835Y94000D01*
X358300Y92750D01*
X359230Y91500D01*
X360315Y90667D01*
X361400Y90250D01*
X362485D01*
X363570Y90667D01*
X364500Y91291D01*
X365275Y92125D01*
G01X370545Y90250D02*
Y102750D01*
G01X377055D02*
Y90250D01*
G01Y96500D02*
X370545D01*
G01X382325Y90250D02*
X386200Y102750D01*
X390075Y90250D01*
G01X388680Y94625D02*
X383720D01*
G01X395500Y90250D02*
Y102750D01*
X399375D01*
X400615Y102125D01*
X401390Y101292D01*
X401700Y99625D01*
X401390Y97958D01*
X400460Y96917D01*
X399375Y96292D01*
X395500D01*
G01X399375D02*
X401700Y90250D01*
G01X411000Y102750D02*
Y90250D01*
G01X407435Y102750D02*
X414565D01*
G01X423400Y89833D02*
X423090Y90042D01*
Y90458D01*
X423400Y90667D01*
X423710Y90458D01*
Y90042D01*
X423400Y89833D01*
G01Y95458D02*
X423090Y95667D01*
Y96083D01*
X423400Y96292D01*
X423710Y96083D01*
Y95667D01*
X423400Y95458D01*
G01X448200Y102750D02*
Y90250D01*
G01X444635Y102750D02*
X451765D01*
G01X460600Y90250D02*
X459360Y90458D01*
X458275Y91291D01*
X457345Y92542D01*
X456725Y94000D01*
X456415Y95667D01*
Y97333D01*
X456725Y99000D01*
X457345Y100458D01*
X458275Y101708D01*
X459360Y102542D01*
X460600Y102750D01*
X461840Y102542D01*
X462925Y101708D01*
X463855Y100458D01*
X464475Y99000D01*
X464785Y97333D01*
Y95667D01*
X464475Y94000D01*
X463855Y92542D01*
X462925Y91291D01*
X461840Y90458D01*
X460600Y90250D01*
G01X469900D02*
Y102750D01*
X473620D01*
X474860Y102125D01*
X475790Y100667D01*
X476100Y99000D01*
X475790Y97333D01*
X475015Y96083D01*
X473620Y95458D01*
X469900D01*
G01X497800Y102750D02*
Y90250D01*
G01X495630Y98583D02*
X499970D01*
G01X510200Y90250D02*
X509270Y90458D01*
X508340Y91291D01*
X507720Y92750D01*
X507410Y94417D01*
X507720Y96083D01*
X508340Y97542D01*
X509270Y98375D01*
X510200Y98583D01*
X511130Y98375D01*
X512060Y97542D01*
X512680Y96083D01*
X512835Y94417D01*
X512680Y92750D01*
X512060Y91291D01*
X511130Y90458D01*
X510200Y90250D01*
G01X536240Y96917D02*
X536860Y97542D01*
X537325Y98583D01*
X537635Y100042D01*
X537325Y101292D01*
X536705Y102125D01*
X535620Y102750D01*
X531435D01*
Y90250D01*
X536550D01*
X537635Y91083D01*
X538255Y92333D01*
X538565Y93792D01*
X538255Y95250D01*
X537325Y96500D01*
X536240Y96917D01*
X531435D01*
G01X547400Y90250D02*
X546160Y90458D01*
X545075Y91291D01*
X544145Y92542D01*
X543525Y94000D01*
X543215Y95667D01*
Y97333D01*
X543525Y99000D01*
X544145Y100458D01*
X545075Y101708D01*
X546160Y102542D01*
X547400Y102750D01*
X548640Y102542D01*
X549725Y101708D01*
X550655Y100458D01*
X551275Y99000D01*
X551585Y97333D01*
Y95667D01*
X551275Y94000D01*
X550655Y92542D01*
X549725Y91291D01*
X548640Y90458D01*
X547400Y90250D01*
G01X559800Y102750D02*
Y90250D01*
G01X556235Y102750D02*
X563365D01*
G01X572200D02*
Y90250D01*
G01X568635Y102750D02*
X575765D01*
G01X584600Y90250D02*
X583360Y90458D01*
X582275Y91291D01*
X581345Y92542D01*
X580725Y94000D01*
X580415Y95667D01*
Y97333D01*
X580725Y99000D01*
X581345Y100458D01*
X582275Y101708D01*
X583360Y102542D01*
X584600Y102750D01*
X585840Y102542D01*
X586925Y101708D01*
X587855Y100458D01*
X588475Y99000D01*
X588785Y97333D01*
Y95667D01*
X588475Y94000D01*
X587855Y92542D01*
X586925Y91291D01*
X585840Y90458D01*
X584600Y90250D01*
G01X592970D02*
Y102750D01*
X597000Y92333D01*
X601030Y102750D01*
Y90250D01*
G01X307305Y40250D02*
Y52750D01*
X313195D01*
G01X311025Y46708D02*
X307305D01*
G01X320790Y52750D02*
X324510D01*
G01X322650D02*
Y40250D01*
G01X320790D02*
X324510D01*
G01X331485D02*
Y52750D01*
X338615Y40250D01*
Y52750D01*
G01X345590D02*
X349310D01*
G01X347450D02*
Y40250D01*
G01X345590D02*
X349310D01*
G01X356595Y41916D02*
X357835Y40875D01*
X359230Y40250D01*
X360470D01*
X361710Y40875D01*
X362640Y41916D01*
X363105Y43375D01*
X362795Y44833D01*
X362020Y46083D01*
X360625Y46917D01*
X358765Y47333D01*
X357680Y48167D01*
X357215Y49625D01*
X357525Y51083D01*
X358300Y52125D01*
X359385Y52750D01*
X360470D01*
X361555Y52333D01*
X362485Y51292D01*
G01X368995Y40250D02*
Y52750D01*
G01X375505D02*
Y40250D01*
G01Y46500D02*
X368995D01*
G01X387750Y40250D02*
X381550D01*
Y52750D01*
X387750D01*
G01X385270Y46708D02*
X381550D01*
G01X393640Y40250D02*
Y52750D01*
X396740D01*
X397980Y52125D01*
X398910Y51292D01*
X399685Y50042D01*
X400305Y48583D01*
X400460Y46500D01*
X400305Y44417D01*
X399685Y42958D01*
X398910Y41708D01*
X397980Y40875D01*
X396740Y40250D01*
X393640D01*
G01X404800Y36083D02*
X414100D01*
G01X418595Y41916D02*
X419835Y40875D01*
X421230Y40250D01*
X422470D01*
X423710Y40875D01*
X424640Y41916D01*
X425105Y43375D01*
X424795Y44833D01*
X424020Y46083D01*
X422625Y46917D01*
X420765Y47333D01*
X419680Y48167D01*
X419215Y49625D01*
X419525Y51083D01*
X420300Y52125D01*
X421385Y52750D01*
X422470D01*
X423555Y52333D01*
X424485Y51292D01*
G01X432390Y52750D02*
X436110D01*
G01X434250D02*
Y40250D01*
G01X432390D02*
X436110D01*
G01X443705Y52750D02*
X449595D01*
X443705Y40250D01*
X449595D01*
G01X462150D02*
X455950D01*
Y52750D01*
X462150D01*
G01X459670Y46708D02*
X455950D01*
G01X314125Y65250D02*
X318000Y77750D01*
X321875Y65250D01*
G01X320480Y69625D02*
X315520D01*
G01X327300Y77750D02*
Y65250D01*
X333500D01*
G01X339700Y77750D02*
Y65250D01*
X345900D01*
G01X364190Y77750D02*
Y68792D01*
X364810Y66916D01*
X366050Y65667D01*
X367600Y65250D01*
X369150Y65667D01*
X370390Y66916D01*
X371010Y68792D01*
Y77750D01*
G01X376435Y65250D02*
Y77750D01*
X383565Y65250D01*
Y77750D01*
G01X390540D02*
X394260D01*
G01X392400D02*
Y65250D01*
G01X390540D02*
X394260D01*
G01X404800Y77750D02*
Y65250D01*
G01X401235Y77750D02*
X408365D01*
G01X413945Y66916D02*
X415185Y65875D01*
X416580Y65250D01*
X417820D01*
X419060Y65875D01*
X419990Y66916D01*
X420455Y68375D01*
X420145Y69833D01*
X419370Y71083D01*
X417975Y71917D01*
X416115Y72333D01*
X415030Y73167D01*
X414565Y74625D01*
X414875Y76083D01*
X415650Y77125D01*
X416735Y77750D01*
X417820D01*
X418905Y77333D01*
X419835Y76292D01*
G01X438125Y65250D02*
X442000Y77750D01*
X445875Y65250D01*
G01X444480Y69625D02*
X439520D01*
G01X451300Y65250D02*
Y77750D01*
X455175D01*
X456415Y77125D01*
X457190Y76292D01*
X457500Y74625D01*
X457190Y72958D01*
X456260Y71917D01*
X455175Y71292D01*
X451300D01*
G01X455175D02*
X457500Y65250D01*
G01X469900D02*
X463700D01*
Y77750D01*
X469900D01*
G01X467420Y71708D02*
X463700D01*
G01X489740Y77750D02*
X493460D01*
G01X491600D02*
Y65250D01*
G01X489740D02*
X493460D01*
G01X500435D02*
Y77750D01*
X507565Y65250D01*
Y77750D01*
G01X524770Y65250D02*
Y77750D01*
X528800Y67333D01*
X532830Y77750D01*
Y65250D01*
G01X539340Y77750D02*
X543060D01*
G01X541200D02*
Y65250D01*
G01X539340D02*
X543060D01*
G01X550500Y77750D02*
Y65250D01*
X556700D01*
G01X562745Y66916D02*
X563985Y65875D01*
X565380Y65250D01*
X566620D01*
X567860Y65875D01*
X568790Y66916D01*
X569255Y68375D01*
X568945Y69833D01*
X568170Y71083D01*
X566775Y71917D01*
X564915Y72333D01*
X563830Y73167D01*
X563365Y74625D01*
X563675Y76083D01*
X564450Y77125D01*
X565535Y77750D01*
X566620D01*
X567705Y77333D01*
X568635Y76292D01*
G01X366050Y15250D02*
Y27750D01*
X364190Y25250D01*
G01Y15250D02*
X367910D01*
G01X375505Y20458D02*
X376590Y21917D01*
X377520Y22750D01*
X378760Y23167D01*
X379845Y22750D01*
X380620Y21917D01*
X381240Y20667D01*
X381395Y19208D01*
X381240Y17958D01*
X380620Y16708D01*
X379690Y15667D01*
X378605Y15250D01*
X377365Y15667D01*
X376280Y16916D01*
X375660Y18792D01*
X375505Y20875D01*
X375815Y23583D01*
X376280Y25042D01*
X377055Y26500D01*
X378140Y27542D01*
X379225Y27750D01*
X380310Y27333D01*
X381085Y26292D01*
G01X390850Y14833D02*
X390540Y15042D01*
Y15458D01*
X390850Y15667D01*
X391160Y15458D01*
Y15042D01*
X390850Y14833D01*
G01X403250Y27750D02*
X402010Y27333D01*
X401080Y26292D01*
X400460Y25042D01*
X399995Y23375D01*
X399840Y21500D01*
X399995Y19625D01*
X400460Y17958D01*
X401080Y16708D01*
X402010Y15667D01*
X403250Y15250D01*
X404490Y15667D01*
X405420Y16708D01*
X406040Y17958D01*
X406505Y19625D01*
X406660Y21500D01*
X406505Y23375D01*
X406040Y25042D01*
X405420Y26292D01*
X404490Y27333D01*
X403250Y27750D01*
G01X485400Y59000D02*
Y9000D01*
G01X514850Y40250D02*
Y52750D01*
X518570D01*
X519810Y52125D01*
X520740Y50667D01*
X521050Y49000D01*
X520740Y47333D01*
X519965Y46083D01*
X518570Y45458D01*
X514850D01*
G01X527250Y52750D02*
Y40250D01*
X533450D01*
G01X538875D02*
X542750Y52750D01*
X546625Y40250D01*
G01X545230Y44625D02*
X540270D01*
G01X555150Y52750D02*
Y40250D01*
G01X551585Y52750D02*
X558715D01*
G01X570650Y40250D02*
X564450D01*
Y52750D01*
X570650D01*
G01X568170Y46708D02*
X564450D01*
G01X576540Y40250D02*
Y52750D01*
X579640D01*
X580880Y52125D01*
X581810Y51292D01*
X582585Y50042D01*
X583205Y48583D01*
X583360Y46500D01*
X583205Y44417D01*
X582585Y42958D01*
X581810Y41708D01*
X580880Y40875D01*
X579640Y40250D01*
X576540D01*
G01X514850Y15250D02*
Y27750D01*
X518570D01*
X519810Y27125D01*
X520740Y25667D01*
X521050Y24000D01*
X520740Y22333D01*
X519965Y21083D01*
X518570Y20458D01*
X514850D01*
G01X527250Y27750D02*
Y15250D01*
X533450D01*
G01X538875D02*
X542750Y27750D01*
X546625Y15250D01*
G01X545230Y19625D02*
X540270D01*
G01X555150Y27750D02*
Y15250D01*
G01X551585Y27750D02*
X558715D01*
G01X570650Y15250D02*
X564450D01*
Y27750D01*
X570650D01*
G01X568170Y21708D02*
X564450D01*
G01X576540Y15250D02*
Y27750D01*
X579640D01*
X580880Y27125D01*
X581810Y26292D01*
X582585Y25042D01*
X583205Y23583D01*
X583360Y21500D01*
X583205Y19417D01*
X582585Y17958D01*
X581810Y16708D01*
X580880Y15875D01*
X579640Y15250D01*
X576540D01*
G01X549646Y168124D02*
Y357844D01*
X609646D01*
Y168124D01*
X549646D01*
G01X612500Y59000D02*
Y9000D01*
G01X638850Y40250D02*
X637610Y40458D01*
X636525Y41291D01*
X635595Y42542D01*
X634975Y44000D01*
X634665Y45667D01*
Y47333D01*
X634975Y49000D01*
X635595Y50458D01*
X636525Y51708D01*
X637610Y52542D01*
X638850Y52750D01*
X640090Y52542D01*
X641175Y51708D01*
X642105Y50458D01*
X642725Y49000D01*
X643035Y47333D01*
Y45667D01*
X642725Y44000D01*
X642105Y42542D01*
X641175Y41291D01*
X640090Y40458D01*
X638850Y40250D01*
G01X640090Y43583D02*
X641950Y40250D01*
G01X651250Y52750D02*
Y40250D01*
G01X647685Y52750D02*
X654815D01*
G01X663650Y40250D02*
Y45875D01*
X660550Y52750D01*
G01X666750D02*
X663650Y45875D01*
G01X642105Y25667D02*
X643035Y26916D01*
X644120Y27542D01*
X645360Y27750D01*
X646910Y27333D01*
X647995Y26292D01*
X648305Y25042D01*
X648150Y23791D01*
X647530Y22750D01*
X644430Y20667D01*
X643035Y19208D01*
X642105Y17125D01*
X641795Y15250D01*
X648305D01*
G01X659310D02*
Y27750D01*
X653575Y18792D01*
X661325D01*
G54D13*
G01X544979Y147829D02*
Y151829D01*
X545813D01*
X546146Y151629D01*
X546396Y151362D01*
X546604Y150962D01*
X546771Y150496D01*
X546813Y149829D01*
X546771Y149162D01*
X546604Y148696D01*
X546396Y148296D01*
X546146Y148029D01*
X545813Y147829D01*
X544979D01*
G01X549429D02*
X547763D01*
Y151829D01*
X549429D01*
G01X548763Y149896D02*
X547763D01*
G01X550421Y148362D02*
X550754Y148029D01*
X551129Y147829D01*
X551463D01*
X551796Y148029D01*
X552046Y148362D01*
X552171Y148829D01*
X552088Y149296D01*
X551879Y149696D01*
X551504Y149962D01*
X551004Y150096D01*
X550713Y150362D01*
X550588Y150829D01*
X550671Y151296D01*
X550879Y151629D01*
X551171Y151829D01*
X551463D01*
X551754Y151696D01*
X552004Y151362D01*
G01X553496Y151829D02*
X554496D01*
G01X553996D02*
Y147829D01*
G01X553496D02*
X554496D01*
G01X556946Y149829D02*
X557779D01*
Y148629D01*
X557529Y148229D01*
X557238Y147962D01*
X556821Y147829D01*
X556404Y147962D01*
X556113Y148229D01*
X555863Y148629D01*
X555696Y149096D01*
X555613Y149629D01*
Y150096D01*
X555696Y150496D01*
X555863Y150962D01*
X556113Y151362D01*
X556363Y151629D01*
X556696Y151829D01*
X556988D01*
X557321Y151696D01*
X557571Y151429D01*
G01X558438Y147829D02*
Y151829D01*
X560354Y147829D01*
Y151829D01*
G01X565713Y151496D02*
X565463Y151696D01*
X565171Y151829D01*
X564838D01*
X564463Y151629D01*
X564171Y151296D01*
X563963Y150896D01*
X563796Y150229D01*
X563754Y149629D01*
X563838Y149029D01*
X563963Y148629D01*
X564213Y148229D01*
X564504Y147962D01*
X564796Y147829D01*
X565088D01*
X565379Y147962D01*
X565629Y148162D01*
X565838Y148429D01*
G01X566663Y147829D02*
Y151829D01*
X567704D01*
X568038Y151629D01*
X568246Y151362D01*
X568329Y150829D01*
X568246Y150296D01*
X567996Y149962D01*
X567704Y149762D01*
X566663D01*
G01X567704D02*
X568329Y147829D01*
G01X570196D02*
X569863Y147896D01*
X569571Y148162D01*
X569321Y148562D01*
X569154Y149029D01*
X569071Y149562D01*
Y150096D01*
X569154Y150629D01*
X569321Y151096D01*
X569571Y151496D01*
X569863Y151762D01*
X570196Y151829D01*
X570529Y151762D01*
X570821Y151496D01*
X571071Y151096D01*
X571238Y150629D01*
X571321Y150096D01*
Y149562D01*
X571238Y149029D01*
X571071Y148562D01*
X570821Y148162D01*
X570529Y147896D01*
X570196Y147829D01*
G01X572021Y148362D02*
X572354Y148029D01*
X572729Y147829D01*
X573063D01*
X573396Y148029D01*
X573646Y148362D01*
X573771Y148829D01*
X573688Y149296D01*
X573479Y149696D01*
X573104Y149962D01*
X572604Y150096D01*
X572313Y150362D01*
X572188Y150829D01*
X572271Y151296D01*
X572479Y151629D01*
X572771Y151829D01*
X573063D01*
X573354Y151696D01*
X573604Y151362D01*
G01X574721Y148362D02*
X575054Y148029D01*
X575429Y147829D01*
X575763D01*
X576096Y148029D01*
X576346Y148362D01*
X576471Y148829D01*
X576388Y149296D01*
X576179Y149696D01*
X575804Y149962D01*
X575304Y150096D01*
X575013Y150362D01*
X574888Y150829D01*
X574971Y151296D01*
X575179Y151629D01*
X575471Y151829D01*
X575763D01*
X576054Y151696D01*
X576304Y151362D01*
G01X580121Y148362D02*
X580454Y148029D01*
X580829Y147829D01*
X581163D01*
X581496Y148029D01*
X581746Y148362D01*
X581871Y148829D01*
X581788Y149296D01*
X581579Y149696D01*
X581204Y149962D01*
X580704Y150096D01*
X580413Y150362D01*
X580288Y150829D01*
X580371Y151296D01*
X580579Y151629D01*
X580871Y151829D01*
X581163D01*
X581454Y151696D01*
X581704Y151362D01*
G01X584529Y147829D02*
X582863D01*
Y151829D01*
X584529D01*
G01X583863Y149896D02*
X582863D01*
G01X587313Y151496D02*
X587063Y151696D01*
X586771Y151829D01*
X586438D01*
X586063Y151629D01*
X585771Y151296D01*
X585563Y150896D01*
X585396Y150229D01*
X585354Y149629D01*
X585438Y149029D01*
X585563Y148629D01*
X585813Y148229D01*
X586104Y147962D01*
X586396Y147829D01*
X586688D01*
X586979Y147962D01*
X587229Y148162D01*
X587438Y148429D01*
G01X589096Y151829D02*
Y147829D01*
G01X588138Y151829D02*
X590054D01*
G01X591296D02*
X592296D01*
G01X591796D02*
Y147829D01*
G01X591296D02*
X592296D01*
G01X594496D02*
X594163Y147896D01*
X593871Y148162D01*
X593621Y148562D01*
X593454Y149029D01*
X593371Y149562D01*
Y150096D01*
X593454Y150629D01*
X593621Y151096D01*
X593871Y151496D01*
X594163Y151762D01*
X594496Y151829D01*
X594829Y151762D01*
X595121Y151496D01*
X595371Y151096D01*
X595538Y150629D01*
X595621Y150096D01*
Y149562D01*
X595538Y149029D01*
X595371Y148562D01*
X595121Y148162D01*
X594829Y147896D01*
X594496Y147829D01*
G01X596238D02*
Y151829D01*
X598154Y147829D01*
Y151829D01*
G01X603513Y151496D02*
X603263Y151696D01*
X602971Y151829D01*
X602638D01*
X602263Y151629D01*
X601971Y151296D01*
X601763Y150896D01*
X601596Y150229D01*
X601554Y149629D01*
X601638Y149029D01*
X601763Y148629D01*
X602013Y148229D01*
X602304Y147962D01*
X602596Y147829D01*
X602888D01*
X603179Y147962D01*
X603429Y148162D01*
X603638Y148429D01*
G01X604421Y147829D02*
Y151829D01*
G01X606171D02*
Y147829D01*
G01Y149829D02*
X604421D01*
G01X606954Y147829D02*
X607996Y151829D01*
X609038Y147829D01*
G01X608663Y149229D02*
X607329D01*
G01X609863Y147829D02*
Y151829D01*
X610904D01*
X611238Y151629D01*
X611446Y151362D01*
X611529Y150829D01*
X611446Y150296D01*
X611196Y149962D01*
X610904Y149762D01*
X609863D01*
G01X610904D02*
X611529Y147829D01*
G01X613396Y151829D02*
Y147829D01*
G01X612438Y151829D02*
X614354D01*
G01X543296Y146496D02*
X545796D01*
G01X545996D02*
X548496D01*
G01X548696D02*
X551196D01*
G01X551396D02*
X553896D01*
G01X554096D02*
X556596D01*
G01X556796D02*
X559296D01*
G01X559496D02*
X561996D01*
G01X562196D02*
X564696D01*
G01X564896D02*
X567396D01*
G01X567596D02*
X570096D01*
G01X570296D02*
X572796D01*
G01X572996D02*
X575496D01*
G01X575696D02*
X578196D01*
G01X578396D02*
X580896D01*
G01X581096D02*
X583596D01*
G01X583796D02*
X586296D01*
G01X586496D02*
X588996D01*
G01X589196D02*
X591696D01*
G01X591896D02*
X594396D01*
G01X594596D02*
X597096D01*
G01X597296D02*
X599796D01*
G01X599996D02*
X602496D01*
G01X602696D02*
X605196D01*
G01X605396D02*
X607896D01*
G01X608096D02*
X610596D01*
G01X610796D02*
X613296D01*
G01X613496D02*
X615996D01*
G01X551296Y144629D02*
Y140629D01*
G01X550338Y144629D02*
X552254D01*
G01X553996Y140629D02*
X553663Y140696D01*
X553371Y140962D01*
X553121Y141362D01*
X552954Y141829D01*
X552871Y142362D01*
Y142896D01*
X552954Y143429D01*
X553121Y143896D01*
X553371Y144296D01*
X553663Y144562D01*
X553996Y144629D01*
X554329Y144562D01*
X554621Y144296D01*
X554871Y143896D01*
X555038Y143429D01*
X555121Y142896D01*
Y142362D01*
X555038Y141829D01*
X554871Y141362D01*
X554621Y140962D01*
X554329Y140696D01*
X553996Y140629D01*
G01X556696Y144629D02*
Y140629D01*
G01X555738Y144629D02*
X557654D01*
G01X558354Y140629D02*
X559396Y144629D01*
X560438Y140629D01*
G01X560063Y142029D02*
X558729D01*
G01X561263Y144629D02*
Y140629D01*
X562929D01*
G01X567496Y144629D02*
Y140629D01*
G01X566538Y144629D02*
X568454D01*
G01X569321Y140629D02*
Y144629D01*
G01X571071D02*
Y140629D01*
G01Y142629D02*
X569321D01*
G01X572396Y144629D02*
X573396D01*
G01X572896D02*
Y140629D01*
G01X572396D02*
X573396D01*
G01X576513Y144296D02*
X576263Y144496D01*
X575971Y144629D01*
X575638D01*
X575263Y144429D01*
X574971Y144096D01*
X574763Y143696D01*
X574596Y143029D01*
X574554Y142429D01*
X574638Y141829D01*
X574763Y141429D01*
X575013Y141029D01*
X575304Y140762D01*
X575596Y140629D01*
X575888D01*
X576179Y140762D01*
X576429Y140962D01*
X576638Y141229D01*
G01X577379Y140629D02*
Y144629D01*
G01X578963D02*
X577379Y142162D01*
G01X579213Y140629D02*
X578088Y143296D01*
G01X580038Y140629D02*
Y144629D01*
X581954Y140629D01*
Y144629D01*
G01X584529Y140629D02*
X582863D01*
Y144629D01*
X584529D01*
G01X583863Y142696D02*
X582863D01*
G01X585521Y141162D02*
X585854Y140829D01*
X586229Y140629D01*
X586563D01*
X586896Y140829D01*
X587146Y141162D01*
X587271Y141629D01*
X587188Y142096D01*
X586979Y142496D01*
X586604Y142762D01*
X586104Y142896D01*
X585813Y143162D01*
X585688Y143629D01*
X585771Y144096D01*
X585979Y144429D01*
X586271Y144629D01*
X586563D01*
X586854Y144496D01*
X587104Y144162D01*
G01X588221Y141162D02*
X588554Y140829D01*
X588929Y140629D01*
X589263D01*
X589596Y140829D01*
X589846Y141162D01*
X589971Y141629D01*
X589888Y142096D01*
X589679Y142496D01*
X589304Y142762D01*
X588804Y142896D01*
X588513Y143162D01*
X588388Y143629D01*
X588471Y144096D01*
X588679Y144429D01*
X588971Y144629D01*
X589263D01*
X589554Y144496D01*
X589804Y144162D01*
G01X593704Y142296D02*
X593996Y142762D01*
X594246Y143029D01*
X594579Y143162D01*
X594871Y143029D01*
X595079Y142762D01*
X595246Y142362D01*
X595288Y141896D01*
X595246Y141496D01*
X595079Y141096D01*
X594829Y140762D01*
X594538Y140629D01*
X594204Y140762D01*
X593913Y141162D01*
X593746Y141762D01*
X593704Y142429D01*
X593788Y143296D01*
X593913Y143762D01*
X594121Y144229D01*
X594413Y144562D01*
X594704Y144629D01*
X594996Y144496D01*
X595204Y144162D01*
G01X597696Y140629D02*
Y144629D01*
X596154Y141762D01*
X598238D01*
G01X601513Y140629D02*
Y144629D01*
X602596Y141296D01*
X603679Y144629D01*
Y140629D01*
G01X604796Y144629D02*
X605796D01*
G01X605296D02*
Y140629D01*
G01X604796D02*
X605796D01*
G01X607163Y144629D02*
Y140629D01*
X608829D01*
G01X577146Y367433D02*
X573146D01*
X573946Y366933D01*
G01X577146D02*
Y367933D01*
G01X575813Y369591D02*
Y370675D01*
G01X573813Y372041D02*
X573413Y372291D01*
X573213Y372583D01*
X573146Y372916D01*
X573279Y373333D01*
X573613Y373625D01*
X574013Y373708D01*
X574413Y373666D01*
X574746Y373500D01*
X575413Y372666D01*
X575879Y372291D01*
X576546Y372041D01*
X577146Y371958D01*
Y373708D01*
G01X618079Y157325D02*
X619913Y160258D01*
G01X618996Y160791D02*
Y156791D01*
G01X619913Y157325D02*
X618079Y160258D01*
G01X617746Y158791D02*
X620246D01*
G01X626221Y157991D02*
X626554Y157658D01*
X626929Y157458D01*
X627263D01*
X627596Y157658D01*
X627846Y157991D01*
X627971Y158458D01*
X627888Y158925D01*
X627679Y159325D01*
X627304Y159591D01*
X626804Y159725D01*
X626513Y159991D01*
X626388Y160458D01*
X626471Y160925D01*
X626679Y161258D01*
X626971Y161458D01*
X627263D01*
X627554Y161325D01*
X627804Y160991D01*
G01X628879Y161458D02*
Y158591D01*
X629046Y157991D01*
X629379Y157591D01*
X629796Y157458D01*
X630213Y157591D01*
X630546Y157991D01*
X630713Y158591D01*
Y161458D01*
G01X631663Y157458D02*
Y161458D01*
X632704D01*
X633038Y161258D01*
X633246Y160991D01*
X633329Y160458D01*
X633246Y159925D01*
X632996Y159591D01*
X632704Y159391D01*
X631663D01*
G01X632704D02*
X633329Y157458D01*
G01X634404D02*
Y161458D01*
X635988D01*
G01X635404Y159525D02*
X634404D01*
G01X636854Y157458D02*
X637896Y161458D01*
X638938Y157458D01*
G01X638563Y158858D02*
X637229D01*
G01X641513Y161125D02*
X641263Y161325D01*
X640971Y161458D01*
X640638D01*
X640263Y161258D01*
X639971Y160925D01*
X639763Y160525D01*
X639596Y159858D01*
X639554Y159258D01*
X639638Y158658D01*
X639763Y158258D01*
X640013Y157858D01*
X640304Y157591D01*
X640596Y157458D01*
X640888D01*
X641179Y157591D01*
X641429Y157791D01*
X641638Y158058D01*
G01X644129Y157458D02*
X642463D01*
Y161458D01*
X644129D01*
G01X643463Y159525D02*
X642463D01*
G01X612763Y166791D02*
Y162791D01*
X614429D01*
G01X615504Y166124D02*
X615754Y166524D01*
X616046Y166724D01*
X616379Y166791D01*
X616796Y166658D01*
X617088Y166324D01*
X617171Y165924D01*
X617129Y165524D01*
X616963Y165191D01*
X616129Y164524D01*
X615754Y164058D01*
X615504Y163391D01*
X615421Y162791D01*
X617171D01*
G01X622029Y164924D02*
X622196Y165124D01*
X622321Y165458D01*
X622404Y165924D01*
X622321Y166324D01*
X622154Y166591D01*
X621863Y166791D01*
X620738D01*
Y162791D01*
X622113D01*
X622404Y163058D01*
X622571Y163458D01*
X622654Y163924D01*
X622571Y164391D01*
X622321Y164791D01*
X622029Y164924D01*
X620738D01*
G01X624396Y162791D02*
X624063Y162858D01*
X623771Y163124D01*
X623521Y163524D01*
X623354Y163991D01*
X623271Y164524D01*
Y165058D01*
X623354Y165591D01*
X623521Y166058D01*
X623771Y166458D01*
X624063Y166724D01*
X624396Y166791D01*
X624729Y166724D01*
X625021Y166458D01*
X625271Y166058D01*
X625438Y165591D01*
X625521Y165058D01*
Y164524D01*
X625438Y163991D01*
X625271Y163524D01*
X625021Y163124D01*
X624729Y162858D01*
X624396Y162791D01*
G01X627096Y166791D02*
Y162791D01*
G01X626138Y166791D02*
X628054D01*
G01X629796D02*
Y162791D01*
G01X628838Y166791D02*
X630754D01*
G01X632496Y162791D02*
X632163Y162858D01*
X631871Y163124D01*
X631621Y163524D01*
X631454Y163991D01*
X631371Y164524D01*
Y165058D01*
X631454Y165591D01*
X631621Y166058D01*
X631871Y166458D01*
X632163Y166724D01*
X632496Y166791D01*
X632829Y166724D01*
X633121Y166458D01*
X633371Y166058D01*
X633538Y165591D01*
X633621Y165058D01*
Y164524D01*
X633538Y163991D01*
X633371Y163524D01*
X633121Y163124D01*
X632829Y162858D01*
X632496Y162791D01*
G01X634113D02*
Y166791D01*
X635196Y163458D01*
X636279Y166791D01*
Y162791D01*
G01X641513Y166458D02*
X641263Y166658D01*
X640971Y166791D01*
X640638D01*
X640263Y166591D01*
X639971Y166258D01*
X639763Y165858D01*
X639596Y165191D01*
X639554Y164591D01*
X639638Y163991D01*
X639763Y163591D01*
X640013Y163191D01*
X640304Y162924D01*
X640596Y162791D01*
X640888D01*
X641179Y162924D01*
X641429Y163124D01*
X641638Y163391D01*
G01X643296Y162791D02*
X642963Y162858D01*
X642671Y163124D01*
X642421Y163524D01*
X642254Y163991D01*
X642171Y164524D01*
Y165058D01*
X642254Y165591D01*
X642421Y166058D01*
X642671Y166458D01*
X642963Y166724D01*
X643296Y166791D01*
X643629Y166724D01*
X643921Y166458D01*
X644171Y166058D01*
X644338Y165591D01*
X644421Y165058D01*
Y164524D01*
X644338Y163991D01*
X644171Y163524D01*
X643921Y163124D01*
X643629Y162858D01*
X643296Y162791D01*
G01X645038D02*
Y166791D01*
X646954Y162791D01*
Y166791D01*
G01X647779Y162791D02*
Y166791D01*
X648613D01*
X648946Y166591D01*
X649196Y166324D01*
X649404Y165924D01*
X649571Y165458D01*
X649613Y164791D01*
X649571Y164124D01*
X649404Y163658D01*
X649196Y163258D01*
X648946Y162991D01*
X648613Y162791D01*
X647779D01*
G01X650479Y166791D02*
Y163924D01*
X650646Y163324D01*
X650979Y162924D01*
X651396Y162791D01*
X651813Y162924D01*
X652146Y163324D01*
X652313Y163924D01*
Y166791D01*
G01X655013Y166458D02*
X654763Y166658D01*
X654471Y166791D01*
X654138D01*
X653763Y166591D01*
X653471Y166258D01*
X653263Y165858D01*
X653096Y165191D01*
X653054Y164591D01*
X653138Y163991D01*
X653263Y163591D01*
X653513Y163191D01*
X653804Y162924D01*
X654096Y162791D01*
X654388D01*
X654679Y162924D01*
X654929Y163124D01*
X655138Y163391D01*
G01X656796Y166791D02*
Y162791D01*
G01X655838Y166791D02*
X657754D01*
G01X659496Y162791D02*
X659163Y162858D01*
X658871Y163124D01*
X658621Y163524D01*
X658454Y163991D01*
X658371Y164524D01*
Y165058D01*
X658454Y165591D01*
X658621Y166058D01*
X658871Y166458D01*
X659163Y166724D01*
X659496Y166791D01*
X659829Y166724D01*
X660121Y166458D01*
X660371Y166058D01*
X660538Y165591D01*
X660621Y165058D01*
Y164524D01*
X660538Y163991D01*
X660371Y163524D01*
X660121Y163124D01*
X659829Y162858D01*
X659496Y162791D01*
G01X661363D02*
Y166791D01*
X662404D01*
X662738Y166591D01*
X662946Y166324D01*
X663029Y165791D01*
X662946Y165258D01*
X662696Y164924D01*
X662404Y164724D01*
X661363D01*
G01X662404D02*
X663029Y162791D01*
G01X618079Y262851D02*
X619913Y265784D01*
G01X618996Y266317D02*
Y262317D01*
G01X619913Y262851D02*
X618079Y265784D01*
G01X617746Y264317D02*
X620246D01*
G01X626179Y262984D02*
Y266984D01*
X627013D01*
X627346Y266784D01*
X627596Y266517D01*
X627804Y266117D01*
X627971Y265651D01*
X628013Y264984D01*
X627971Y264317D01*
X627804Y263851D01*
X627596Y263451D01*
X627346Y263184D01*
X627013Y262984D01*
X626179D01*
G01X629296Y266984D02*
X630296D01*
G01X629796D02*
Y262984D01*
G01X629296D02*
X630296D01*
G01X633329D02*
X631663D01*
Y266984D01*
X633329D01*
G01X632663Y265051D02*
X631663D01*
G01X634363Y266984D02*
Y262984D01*
X636029D01*
G01X638729D02*
X637063D01*
Y266984D01*
X638729D01*
G01X638063Y265051D02*
X637063D01*
G01X641513Y266651D02*
X641263Y266851D01*
X640971Y266984D01*
X640638D01*
X640263Y266784D01*
X639971Y266451D01*
X639763Y266051D01*
X639596Y265384D01*
X639554Y264784D01*
X639638Y264184D01*
X639763Y263784D01*
X640013Y263384D01*
X640304Y263117D01*
X640596Y262984D01*
X640888D01*
X641179Y263117D01*
X641429Y263317D01*
X641638Y263584D01*
G01X643296Y266984D02*
Y262984D01*
G01X642338Y266984D02*
X644254D01*
G01X645163Y262984D02*
Y266984D01*
X646204D01*
X646538Y266784D01*
X646746Y266517D01*
X646829Y265984D01*
X646746Y265451D01*
X646496Y265117D01*
X646204Y264917D01*
X645163D01*
G01X646204D02*
X646829Y262984D01*
G01X648196Y266984D02*
X649196D01*
G01X648696D02*
Y262984D01*
G01X648196D02*
X649196D01*
G01X652313Y266651D02*
X652063Y266851D01*
X651771Y266984D01*
X651438D01*
X651063Y266784D01*
X650771Y266451D01*
X650563Y266051D01*
X650396Y265384D01*
X650354Y264784D01*
X650438Y264184D01*
X650563Y263784D01*
X650813Y263384D01*
X651104Y263117D01*
X651396Y262984D01*
X651688D01*
X651979Y263117D01*
X652229Y263317D01*
X652438Y263584D01*
G01X618079Y363383D02*
X619913Y366316D01*
G01X618996Y366849D02*
Y362849D01*
G01X619913Y363383D02*
X618079Y366316D01*
G01X617746Y364849D02*
X620246D01*
G01X626221Y364049D02*
X626554Y363716D01*
X626929Y363516D01*
X627263D01*
X627596Y363716D01*
X627846Y364049D01*
X627971Y364516D01*
X627888Y364983D01*
X627679Y365383D01*
X627304Y365649D01*
X626804Y365783D01*
X626513Y366049D01*
X626388Y366516D01*
X626471Y366983D01*
X626679Y367316D01*
X626971Y367516D01*
X627263D01*
X627554Y367383D01*
X627804Y367049D01*
G01X628879Y367516D02*
Y364649D01*
X629046Y364049D01*
X629379Y363649D01*
X629796Y363516D01*
X630213Y363649D01*
X630546Y364049D01*
X630713Y364649D01*
Y367516D01*
G01X631663Y363516D02*
Y367516D01*
X632704D01*
X633038Y367316D01*
X633246Y367049D01*
X633329Y366516D01*
X633246Y365983D01*
X632996Y365649D01*
X632704Y365449D01*
X631663D01*
G01X632704D02*
X633329Y363516D01*
G01X634404D02*
Y367516D01*
X635988D01*
G01X635404Y365583D02*
X634404D01*
G01X636854Y363516D02*
X637896Y367516D01*
X638938Y363516D01*
G01X638563Y364916D02*
X637229D01*
G01X641513Y367183D02*
X641263Y367383D01*
X640971Y367516D01*
X640638D01*
X640263Y367316D01*
X639971Y366983D01*
X639763Y366583D01*
X639596Y365916D01*
X639554Y365316D01*
X639638Y364716D01*
X639763Y364316D01*
X640013Y363916D01*
X640304Y363649D01*
X640596Y363516D01*
X640888D01*
X641179Y363649D01*
X641429Y363849D01*
X641638Y364116D01*
G01X644129Y363516D02*
X642463D01*
Y367516D01*
X644129D01*
G01X643463Y365583D02*
X642463D01*
G01X612763Y360850D02*
Y356850D01*
X614429D01*
G01X616296D02*
Y360850D01*
X615796Y360050D01*
G01Y356850D02*
X616796D01*
G01X621696Y360850D02*
Y356850D01*
G01X620738Y360850D02*
X622654D01*
G01X624396Y356850D02*
X624063Y356917D01*
X623771Y357183D01*
X623521Y357583D01*
X623354Y358050D01*
X623271Y358583D01*
Y359117D01*
X623354Y359650D01*
X623521Y360117D01*
X623771Y360517D01*
X624063Y360783D01*
X624396Y360850D01*
X624729Y360783D01*
X625021Y360517D01*
X625271Y360117D01*
X625438Y359650D01*
X625521Y359117D01*
Y358583D01*
X625438Y358050D01*
X625271Y357583D01*
X625021Y357183D01*
X624729Y356917D01*
X624396Y356850D01*
G01X626263D02*
Y360850D01*
X627263D01*
X627596Y360650D01*
X627846Y360183D01*
X627929Y359650D01*
X627846Y359117D01*
X627638Y358717D01*
X627263Y358517D01*
X626263D01*
G01X633413Y360517D02*
X633163Y360717D01*
X632871Y360850D01*
X632538D01*
X632163Y360650D01*
X631871Y360317D01*
X631663Y359917D01*
X631496Y359250D01*
X631454Y358650D01*
X631538Y358050D01*
X631663Y357650D01*
X631913Y357250D01*
X632204Y356983D01*
X632496Y356850D01*
X632788D01*
X633079Y356983D01*
X633329Y357183D01*
X633538Y357450D01*
G01X635196Y356850D02*
X634863Y356917D01*
X634571Y357183D01*
X634321Y357583D01*
X634154Y358050D01*
X634071Y358583D01*
Y359117D01*
X634154Y359650D01*
X634321Y360117D01*
X634571Y360517D01*
X634863Y360783D01*
X635196Y360850D01*
X635529Y360783D01*
X635821Y360517D01*
X636071Y360117D01*
X636238Y359650D01*
X636321Y359117D01*
Y358583D01*
X636238Y358050D01*
X636071Y357583D01*
X635821Y357183D01*
X635529Y356917D01*
X635196Y356850D01*
G01X636938D02*
Y360850D01*
X638854Y356850D01*
Y360850D01*
G01X639679Y356850D02*
Y360850D01*
X640513D01*
X640846Y360650D01*
X641096Y360383D01*
X641304Y359983D01*
X641471Y359517D01*
X641513Y358850D01*
X641471Y358183D01*
X641304Y357717D01*
X641096Y357317D01*
X640846Y357050D01*
X640513Y356850D01*
X639679D01*
G01X642379Y360850D02*
Y357983D01*
X642546Y357383D01*
X642879Y356983D01*
X643296Y356850D01*
X643713Y356983D01*
X644046Y357383D01*
X644213Y357983D01*
Y360850D01*
G01X646913Y360517D02*
X646663Y360717D01*
X646371Y360850D01*
X646038D01*
X645663Y360650D01*
X645371Y360317D01*
X645163Y359917D01*
X644996Y359250D01*
X644954Y358650D01*
X645038Y358050D01*
X645163Y357650D01*
X645413Y357250D01*
X645704Y356983D01*
X645996Y356850D01*
X646288D01*
X646579Y356983D01*
X646829Y357183D01*
X647038Y357450D01*
G01X648696Y360850D02*
Y356850D01*
G01X647738Y360850D02*
X649654D01*
G01X651396Y356850D02*
X651063Y356917D01*
X650771Y357183D01*
X650521Y357583D01*
X650354Y358050D01*
X650271Y358583D01*
Y359117D01*
X650354Y359650D01*
X650521Y360117D01*
X650771Y360517D01*
X651063Y360783D01*
X651396Y360850D01*
X651729Y360783D01*
X652021Y360517D01*
X652271Y360117D01*
X652438Y359650D01*
X652521Y359117D01*
Y358583D01*
X652438Y358050D01*
X652271Y357583D01*
X652021Y357183D01*
X651729Y356917D01*
X651396Y356850D01*
G01X653263D02*
Y360850D01*
X654304D01*
X654638Y360650D01*
X654846Y360383D01*
X654929Y359850D01*
X654846Y359317D01*
X654596Y358983D01*
X654304Y358783D01*
X653263D01*
G01X654304D02*
X654929Y356850D01*
M02*
