G04 ================== begin FILE IDENTIFICATION RECORD ==================*
G04 Layout Name:  PROIECT1_PACT_DIMA_DARIA_ELENA.brd*
G04 Film Name:    BOTTOM*
G04 File Format:  Gerber RS274X*
G04 File Origin:  Cadence Allegro 17.2-S025*
G04 Origin Date:  Sat Jan 13 16:25:15 2024*
G04 *
G04 Layer:  ETCH/BOTTOM*
G04 Layer:  PIN/BOTTOM*
G04 Layer:  VIA CLASS/BOTTOM*
G04 *
G04 Offset:    (0.01 0.00)*
G04 Mirror:    No*
G04 Mode:      Positive*
G04 Rotation:  0*
G04 FullContactRelief:  No*
G04 UndefLineWidth:     10.00*
G04 ================== end FILE IDENTIFICATION RECORD ====================*
%FSLAX25Y25*MOIN*%
%IR0*IPPOS*OFA0.01000B0.00000*MIA0B0*SFA1.00000B1.00000*%
%ADD10C,.024*%
%ADD11C,.02*%
%ADD12C,.016*%
G75*
%LPD*%
G75*
G54D10*
X10063Y49063D03*
X44000Y27000D03*
X25000Y54209D03*
X37937Y66000D03*
X45000Y91000D03*
Y114000D03*
X54000Y20000D03*
X62000Y45000D03*
X50000Y43000D03*
X57000Y70000D03*
X68000Y85000D03*
X71000Y118000D03*
X75000Y124000D03*
X52000Y149000D03*
X102000Y22000D03*
X99000Y12000D03*
X90000Y45000D03*
X96937Y108937D03*
X101048Y116000D03*
X114300Y84300D03*
X112000Y97000D03*
X113937Y127937D03*
G54D11*
G01X75000Y124000D02*
Y151000D01*
X73000Y153000D01*
X11000D01*
X9000Y151000D01*
Y74000D01*
X11000Y72000D01*
X35937D01*
X37937Y70000D01*
Y66000D01*
G01X50000Y43000D02*
Y48000D01*
X48000Y50000D01*
X29209D01*
X25000Y54209D01*
G01X90000Y45000D02*
X62000D01*
G01D02*
X52000D01*
X50000Y43000D01*
G01X113937Y127937D02*
X78937D01*
X75000Y124000D01*
G54D12*
G01X44000Y27000D02*
X25000D01*
X22000Y30000D01*
Y42000D01*
X20000Y44000D01*
X15126D01*
X10063Y49063D01*
G01X54000Y20000D02*
X57000Y17000D01*
X94000D01*
X99000Y12000D01*
G01X57000Y70000D02*
Y93000D01*
X52000Y98000D01*
Y149000D01*
G01X68000Y85000D02*
X111100D01*
X111800Y84300D01*
G01X45000Y91000D02*
Y114000D01*
G01X96937Y108937D02*
X80063D01*
X71000Y118000D01*
G01X102000Y22000D02*
Y75000D01*
X111300Y84300D01*
X111800D01*
G01X101048Y116000D02*
Y107952D01*
X112000Y97000D01*
G01X111800Y84300D02*
X114300D01*
M02*
