G04 ================== begin FILE IDENTIFICATION RECORD ==================*
G04 Layout Name:  PROIECT1_PACT_DIMA_DARIA_ELENA.brd*
G04 Film Name:    SMTOP*
G04 File Format:  Gerber RS274X*
G04 File Origin:  Cadence Allegro 17.2-S025*
G04 Origin Date:  Sat Jan 13 16:13:23 2024*
G04 *
G04 Layer:  VIA CLASS/SOLDERMASK_TOP*
G04 Layer:  PIN/SOLDERMASK_TOP*
G04 Layer:  PACKAGE GEOMETRY/SOLDERMASK_TOP*
G04 Layer:  BOARD GEOMETRY/SOLDERMASK_TOP*
G04 *
G04 Offset:    (0.01 0.00)*
G04 Mirror:    No*
G04 Mode:      Positive*
G04 Rotation:  0*
G04 FullContactRelief:  No*
G04 UndefLineWidth:     0.00*
G04 ================== end FILE IDENTIFICATION RECORD ====================*
%FSLAX25Y25*MOIN*%
%IR0*IPPOS*OFA0.01000B0.00000*MIA0B0*SFA1.00000B1.00000*%
%ADD12C,.03*%
%ADD15R,.066X.106*%
%ADD14C,.08*%
%ADD19C,.0315*%
%ADD16R,.05512X.05512*%
%ADD20R,.13583X.06496*%
%ADD17R,.022X.025*%
%ADD10R,.04724X.04528*%
%ADD13R,.05512X.08268*%
%ADD11R,.04528X.06496*%
%ADD18R,.06496X.04528*%
%LPD*%
G75*
G54D10*
X9457Y11000D03*
X14457Y119000D03*
X16543Y11000D03*
X45457Y13000D03*
X37543Y56000D03*
X30457D03*
X21543Y119000D03*
X41543D03*
X34457D03*
X52543Y13000D03*
X70543Y62000D03*
X63457D03*
X70543Y74000D03*
X63457D03*
X65543Y104000D03*
X58457D03*
X65543Y118000D03*
X58457D03*
X95543Y121000D03*
X88457D03*
X95543Y133000D03*
X88457D03*
G54D11*
X10063Y36000D03*
X14063Y66000D03*
X10063Y55000D03*
X14063Y106000D03*
X17937Y36000D03*
X37937Y66000D03*
X30063D03*
X21937D03*
X17937Y55000D03*
X21937Y106000D03*
X41937D03*
X34063D03*
X70937Y13000D03*
X63063D03*
X70937Y39000D03*
X63063D03*
X70937Y25000D03*
X63063D03*
X70937Y51000D03*
X63063D03*
X74937Y90000D03*
X67063D03*
X65937Y131000D03*
X58063D03*
X65937Y149000D03*
X58063D03*
X91937Y12000D03*
X84063D03*
X91937Y37000D03*
X84063D03*
X91937Y22000D03*
X84063D03*
X91937Y73000D03*
X84063D03*
X91937Y57000D03*
X84063D03*
X96937Y103000D03*
X89063D03*
X106063Y122000D03*
X95937Y146000D03*
X88063D03*
X113937Y122000D03*
X145937Y94000D03*
X138063D03*
X145937Y106000D03*
X138063D03*
G54D20*
X139205Y25000D03*
X114795D03*
X139205Y61000D03*
X114795D03*
G54D12*
X10063Y49063D03*
X44000Y27000D03*
X25000Y54209D03*
X37937Y66000D03*
X45000Y91000D03*
Y114000D03*
X54000Y20000D03*
X62000Y45000D03*
X50000Y43000D03*
X57000Y70000D03*
X68000Y85000D03*
X71000Y118000D03*
X75000Y124000D03*
X52000Y149000D03*
X102000Y22000D03*
X99000Y12000D03*
X90000Y45000D03*
X96937Y108937D03*
X101048Y116000D03*
X114300Y84300D03*
X112000Y97000D03*
X113937Y127937D03*
G54D13*
X14756Y84472D03*
Y140472D03*
G54D14*
X20000Y20000D03*
X140000Y140000D03*
G54D15*
X30500Y39000D03*
X43500D03*
X113500Y141000D03*
X126500D03*
G54D16*
X37000Y79945D03*
Y89000D03*
Y135945D03*
Y145000D03*
G54D17*
X54800Y54500D03*
X47300D03*
X51000Y61500D03*
X121800Y89500D03*
X114300D03*
X118000Y96500D03*
X130800Y116500D03*
X123300D03*
X127000Y123500D03*
G54D18*
X51000Y72063D03*
Y79937D03*
G54D19*
Y53000D03*
X60000Y57000D03*
X108000Y89000D03*
M02*
