G04 ================== begin FILE IDENTIFICATION RECORD ==================*
G04 Layout Name:  PROIECT1_PACT_DIMA_DARIA_ELENA.brd*
G04 Film Name:    SPTOP*
G04 File Format:  Gerber RS274X*
G04 File Origin:  Cadence Allegro 17.2-S025*
G04 Origin Date:  Sat Jan 13 16:13:23 2024*
G04 *
G04 Layer:  PIN/PASTEMASK_TOP*
G04 Layer:  PACKAGE GEOMETRY/PASTEMASK_TOP*
G04 *
G04 Offset:    (0.01 0.00)*
G04 Mirror:    No*
G04 Mode:      Positive*
G04 Rotation:  0*
G04 FullContactRelief:  No*
G04 UndefLineWidth:     10.00*
G04 ================== end FILE IDENTIFICATION RECORD ====================*
%FSLAX25Y25*MOIN*%
%IR0*IPPOS*OFA0.01000B0.00000*MIA0B0*SFA1.00000B1.00000*%
%ADD13R,.06X.1*%
%ADD12C,.08*%
%ADD15R,.13583X.06496*%
%ADD10R,.04724X.04528*%
%ADD11R,.04528X.06496*%
%ADD14R,.06496X.04528*%
%LPD*%
G75*
G54D10*
X9457Y11000D03*
X14457Y119000D03*
X16543Y11000D03*
X45457Y13000D03*
X37543Y56000D03*
X30457D03*
X21543Y119000D03*
X41543D03*
X34457D03*
X52543Y13000D03*
X70543Y62000D03*
X63457D03*
X70543Y74000D03*
X63457D03*
X65543Y104000D03*
X58457D03*
X65543Y118000D03*
X58457D03*
X95543Y121000D03*
X88457D03*
X95543Y133000D03*
X88457D03*
G54D11*
X10063Y36000D03*
X14063Y66000D03*
X10063Y55000D03*
X14063Y106000D03*
X17937Y36000D03*
X37937Y66000D03*
X30063D03*
X21937D03*
X17937Y55000D03*
X21937Y106000D03*
X41937D03*
X34063D03*
X70937Y13000D03*
X63063D03*
X70937Y39000D03*
X63063D03*
X70937Y25000D03*
X63063D03*
X70937Y51000D03*
X63063D03*
X74937Y90000D03*
X67063D03*
X65937Y131000D03*
X58063D03*
X65937Y149000D03*
X58063D03*
X91937Y12000D03*
X84063D03*
X91937Y37000D03*
X84063D03*
X91937Y22000D03*
X84063D03*
X91937Y73000D03*
X84063D03*
X91937Y57000D03*
X84063D03*
X96937Y103000D03*
X89063D03*
X106063Y122000D03*
X95937Y146000D03*
X88063D03*
X113937Y122000D03*
X145937Y94000D03*
X138063D03*
X145937Y106000D03*
X138063D03*
G54D12*
X20000Y20000D03*
X140000Y140000D03*
G54D13*
X30500Y39000D03*
X43500D03*
X113500Y141000D03*
X126500D03*
G54D14*
X51000Y72063D03*
Y79937D03*
G54D15*
X139205Y25000D03*
X114795D03*
X139205Y61000D03*
X114795D03*
M02*
