G04 ================== begin FILE IDENTIFICATION RECORD ==================*
G04 Layout Name:  PROIECT1_PACT_DIMA_DARIA_ELENA.brd*
G04 Film Name:    SSTOP*
G04 File Format:  Gerber RS274X*
G04 File Origin:  Cadence Allegro 17.2-S025*
G04 Origin Date:  Sat Jan 13 16:25:15 2024*
G04 *
G04 Layer:  REF DES/SILKSCREEN_TOP*
G04 Layer:  PACKAGE GEOMETRY/SILKSCREEN_TOP*
G04 Layer:  BOARD GEOMETRY/SILKSCREEN_TOP*
G04 *
G04 Offset:    (0.01 0.00)*
G04 Mirror:    No*
G04 Mode:      Positive*
G04 Rotation:  0*
G04 FullContactRelief:  No*
G04 UndefLineWidth:     0.00*
G04 ================== end FILE IDENTIFICATION RECORD ====================*
%FSLAX25Y25*MOIN*%
%IR0*IPPOS*OFA0.01000B0.00000*MIA0B0*SFA1.00000B1.00000*%
%ADD10C,.00079*%
%ADD11C,.00591*%
%ADD12C,.00984*%
%ADD13C,.00787*%
G75*
%LPD*%
G75*
G54D10*
G01X18668Y22441D02*
Y23425D01*
X19078D01*
X19209Y23376D01*
X19291Y23310D01*
X19324Y23179D01*
X19291Y23048D01*
X19193Y22966D01*
X19078Y22917D01*
X18668D01*
G01X19078D02*
X19324Y22441D01*
G01X20328D02*
X19672D01*
Y23425D01*
X20328D01*
G01X20066Y22949D02*
X19672D01*
G01X20692Y22441D02*
Y23425D01*
X21316D01*
G01X21086Y22949D02*
X20692D01*
G01X138668Y142441D02*
Y143425D01*
X139078D01*
X139209Y143376D01*
X139291Y143310D01*
X139324Y143179D01*
X139291Y143048D01*
X139193Y142966D01*
X139078Y142917D01*
X138668D01*
G01X139078D02*
X139324Y142441D01*
G01X140328D02*
X139672D01*
Y143425D01*
X140328D01*
G01X140066Y142949D02*
X139672D01*
G01X140692Y142441D02*
Y143425D01*
X141316D01*
G01X141086Y142949D02*
X140692D01*
G54D11*
G01X6817Y27000D02*
Y31000D01*
X7858D01*
X8192Y30800D01*
X8400Y30533D01*
X8483Y30000D01*
X8400Y29467D01*
X8150Y29133D01*
X7858Y28933D01*
X6817D01*
G01X7858D02*
X8483Y27000D01*
G01X10350D02*
Y31000D01*
X9850Y30200D01*
G01Y27000D02*
X10850D01*
G01X5817Y67000D02*
Y71000D01*
X6858D01*
X7192Y70800D01*
X7400Y70533D01*
X7483Y70000D01*
X7400Y69467D01*
X7150Y69133D01*
X6858Y68933D01*
X5817D01*
G01X6858D02*
X7483Y67000D01*
G01X9850D02*
Y71000D01*
X8308Y68133D01*
X10392D01*
G01X5817Y60000D02*
Y64000D01*
X6858D01*
X7192Y63800D01*
X7400Y63533D01*
X7483Y63000D01*
X7400Y62467D01*
X7150Y62133D01*
X6858Y61933D01*
X5817D01*
G01X6858D02*
X7483Y60000D01*
G01X8558Y63333D02*
X8808Y63733D01*
X9100Y63933D01*
X9433Y64000D01*
X9850Y63867D01*
X10142Y63533D01*
X10225Y63133D01*
X10183Y62733D01*
X10017Y62400D01*
X9183Y61733D01*
X8808Y61267D01*
X8558Y60600D01*
X8475Y60000D01*
X10225D01*
G01X13467Y111000D02*
Y115000D01*
X14508D01*
X14842Y114800D01*
X15050Y114533D01*
X15133Y114000D01*
X15050Y113467D01*
X14800Y113133D01*
X14508Y112933D01*
X13467D01*
G01X14508D02*
X15133Y111000D01*
G01X17000D02*
Y115000D01*
X16500Y114200D01*
G01Y111000D02*
X17500D01*
G01X18783Y111800D02*
X19033Y111333D01*
X19367Y111067D01*
X19742Y111000D01*
X20075Y111067D01*
X20408Y111400D01*
X20617Y111800D01*
X20658Y112200D01*
X20575Y112667D01*
X20283Y113000D01*
X19992Y113133D01*
X19617D01*
G01X19992D02*
X20242Y113333D01*
X20450Y113667D01*
X20533Y114067D01*
X20450Y114467D01*
X20242Y114800D01*
X19867Y115000D01*
X19492Y114933D01*
X19117Y114667D01*
G01X12567Y126667D02*
X12317Y126867D01*
X12025Y127000D01*
X11692D01*
X11317Y126800D01*
X11025Y126467D01*
X10817Y126067D01*
X10650Y125400D01*
X10608Y124800D01*
X10692Y124200D01*
X10817Y123800D01*
X11067Y123400D01*
X11358Y123133D01*
X11650Y123000D01*
X11942D01*
X12233Y123133D01*
X12483Y123333D01*
X12692Y123600D01*
G01X13433D02*
X13683Y123267D01*
X13975Y123067D01*
X14350Y123000D01*
X14725Y123133D01*
X15017Y123400D01*
X15225Y123867D01*
X15267Y124400D01*
X15183Y124933D01*
X14975Y125267D01*
X14683Y125533D01*
X14392Y125600D01*
X14100Y125533D01*
X13725Y125267D01*
X13850Y127000D01*
X14975D01*
G01X22567Y14667D02*
X22317Y14867D01*
X22025Y15000D01*
X21692D01*
X21317Y14800D01*
X21025Y14467D01*
X20817Y14067D01*
X20650Y13400D01*
X20608Y12800D01*
X20692Y12200D01*
X20817Y11800D01*
X21067Y11400D01*
X21358Y11133D01*
X21650Y11000D01*
X21942D01*
X22233Y11133D01*
X22483Y11333D01*
X22692Y11600D01*
G01X24350Y11000D02*
Y15000D01*
X23850Y14200D01*
G01Y11000D02*
X24850D01*
G01X24417Y25800D02*
X24625Y25400D01*
X24875Y25133D01*
X25167Y25000D01*
X25500Y25133D01*
X25750Y25400D01*
X26000Y25800D01*
X26083Y26333D01*
Y29000D01*
G01X27950Y25000D02*
Y29000D01*
X27450Y28200D01*
G01Y25000D02*
X28450D01*
G01X45000Y57250D02*
X44933Y56917D01*
X44667Y56625D01*
X44267Y56375D01*
X43800Y56208D01*
X43267Y56125D01*
X42733D01*
X42200Y56208D01*
X41733Y56375D01*
X41333Y56625D01*
X41067Y56917D01*
X41000Y57250D01*
X41067Y57583D01*
X41333Y57875D01*
X41733Y58125D01*
X42200Y58292D01*
X42733Y58375D01*
X43267D01*
X43800Y58292D01*
X44267Y58125D01*
X44667Y57875D01*
X44933Y57583D01*
X45000Y57250D01*
G01X43933Y57583D02*
X45000Y58083D01*
G01Y59950D02*
X41000D01*
X41800Y59450D01*
G01X45000D02*
Y60450D01*
G01X41817Y68000D02*
Y72000D01*
X42858D01*
X43192Y71800D01*
X43400Y71533D01*
X43483Y71000D01*
X43400Y70467D01*
X43150Y70133D01*
X42858Y69933D01*
X41817D01*
G01X42858D02*
X43483Y68000D01*
G01X44433Y68800D02*
X44683Y68333D01*
X45017Y68067D01*
X45392Y68000D01*
X45725Y68067D01*
X46058Y68400D01*
X46267Y68800D01*
X46308Y69200D01*
X46225Y69667D01*
X45933Y70000D01*
X45642Y70133D01*
X45267D01*
G01X45642D02*
X45892Y70333D01*
X46100Y70667D01*
X46183Y71067D01*
X46100Y71467D01*
X45892Y71800D01*
X45517Y72000D01*
X45142Y71933D01*
X44767Y71667D01*
G01X28567Y52667D02*
X28317Y52867D01*
X28025Y53000D01*
X27692D01*
X27317Y52800D01*
X27025Y52467D01*
X26817Y52067D01*
X26650Y51400D01*
X26608Y50800D01*
X26692Y50200D01*
X26817Y49800D01*
X27067Y49400D01*
X27358Y49133D01*
X27650Y49000D01*
X27942D01*
X28233Y49133D01*
X28483Y49333D01*
X28692Y49600D01*
G01X29558Y52333D02*
X29808Y52733D01*
X30100Y52933D01*
X30433Y53000D01*
X30850Y52867D01*
X31142Y52533D01*
X31225Y52133D01*
X31183Y51733D01*
X31017Y51400D01*
X30183Y50733D01*
X29808Y50267D01*
X29558Y49600D01*
X29475Y49000D01*
X31225D01*
G01X41417Y93000D02*
Y97000D01*
X42458D01*
X42792Y96800D01*
X43000Y96533D01*
X43083Y96000D01*
X43000Y95467D01*
X42750Y95133D01*
X42458Y94933D01*
X41417D01*
G01X42458D02*
X43083Y93000D01*
G01X44950D02*
Y97000D01*
X44450Y96200D01*
G01Y93000D02*
X45450D01*
G01X48150D02*
Y97000D01*
X46608Y94133D01*
X48692D01*
G01X27467Y110000D02*
Y114000D01*
X28508D01*
X28842Y113800D01*
X29050Y113533D01*
X29133Y113000D01*
X29050Y112467D01*
X28800Y112133D01*
X28508Y111933D01*
X27467D01*
G01X28508D02*
X29133Y110000D01*
G01X31000D02*
Y114000D01*
X30500Y113200D01*
G01Y110000D02*
X31500D01*
G01X32908Y113333D02*
X33158Y113733D01*
X33450Y113933D01*
X33783Y114000D01*
X34200Y113867D01*
X34492Y113533D01*
X34575Y113133D01*
X34533Y112733D01*
X34367Y112400D01*
X33533Y111733D01*
X33158Y111267D01*
X32908Y110600D01*
X32825Y110000D01*
X34575D01*
G01X36567Y126667D02*
X36317Y126867D01*
X36025Y127000D01*
X35692D01*
X35317Y126800D01*
X35025Y126467D01*
X34817Y126067D01*
X34650Y125400D01*
X34608Y124800D01*
X34692Y124200D01*
X34817Y123800D01*
X35067Y123400D01*
X35358Y123133D01*
X35650Y123000D01*
X35942D01*
X36233Y123133D01*
X36483Y123333D01*
X36692Y123600D01*
G01X37558Y124667D02*
X37850Y125133D01*
X38100Y125400D01*
X38433Y125533D01*
X38725Y125400D01*
X38933Y125133D01*
X39100Y124733D01*
X39142Y124267D01*
X39100Y123867D01*
X38933Y123467D01*
X38683Y123133D01*
X38392Y123000D01*
X38058Y123133D01*
X37767Y123533D01*
X37600Y124133D01*
X37558Y124800D01*
X37642Y125667D01*
X37767Y126133D01*
X37975Y126600D01*
X38267Y126933D01*
X38558Y127000D01*
X38850Y126867D01*
X39058Y126533D01*
G01X41417Y149000D02*
Y153000D01*
X42458D01*
X42792Y152800D01*
X43000Y152533D01*
X43083Y152000D01*
X43000Y151467D01*
X42750Y151133D01*
X42458Y150933D01*
X41417D01*
G01X42458D02*
X43083Y149000D01*
G01X44950D02*
Y153000D01*
X44450Y152200D01*
G01Y149000D02*
X45450D01*
G01X47650D02*
Y153000D01*
X47150Y152200D01*
G01Y149000D02*
X48150D01*
G01X74467Y41000D02*
Y45000D01*
X75508D01*
X75842Y44800D01*
X76050Y44533D01*
X76133Y44000D01*
X76050Y43467D01*
X75800Y43133D01*
X75508Y42933D01*
X74467D01*
G01X75508D02*
X76133Y41000D01*
G01X77208Y44333D02*
X77458Y44733D01*
X77750Y44933D01*
X78083Y45000D01*
X78500Y44867D01*
X78792Y44533D01*
X78875Y44133D01*
X78833Y43733D01*
X78667Y43400D01*
X77833Y42733D01*
X77458Y42267D01*
X77208Y41600D01*
X77125Y41000D01*
X78875D01*
G01X81200D02*
Y45000D01*
X79658Y42133D01*
X81742D01*
G01X49567Y20667D02*
X49317Y20867D01*
X49025Y21000D01*
X48692D01*
X48317Y20800D01*
X48025Y20467D01*
X47817Y20067D01*
X47650Y19400D01*
X47608Y18800D01*
X47692Y18200D01*
X47817Y17800D01*
X48067Y17400D01*
X48358Y17133D01*
X48650Y17000D01*
X48942D01*
X49233Y17133D01*
X49483Y17333D01*
X49692Y17600D01*
G01X51850Y17000D02*
Y21000D01*
X50308Y18133D01*
X52392D01*
G01X74467Y48000D02*
Y52000D01*
X75508D01*
X75842Y51800D01*
X76050Y51533D01*
X76133Y51000D01*
X76050Y50467D01*
X75800Y50133D01*
X75508Y49933D01*
X74467D01*
G01X75508D02*
X76133Y48000D01*
G01X77208Y51333D02*
X77458Y51733D01*
X77750Y51933D01*
X78083Y52000D01*
X78500Y51867D01*
X78792Y51533D01*
X78875Y51133D01*
X78833Y50733D01*
X78667Y50400D01*
X77833Y49733D01*
X77458Y49267D01*
X77208Y48600D01*
X77125Y48000D01*
X78875D01*
G01X79908Y51333D02*
X80158Y51733D01*
X80450Y51933D01*
X80783Y52000D01*
X81200Y51867D01*
X81492Y51533D01*
X81575Y51133D01*
X81533Y50733D01*
X81367Y50400D01*
X80533Y49733D01*
X80158Y49267D01*
X79908Y48600D01*
X79825Y48000D01*
X81575D01*
G01X73567Y69667D02*
X73317Y69867D01*
X73025Y70000D01*
X72692D01*
X72317Y69800D01*
X72025Y69467D01*
X71817Y69067D01*
X71650Y68400D01*
X71608Y67800D01*
X71692Y67200D01*
X71817Y66800D01*
X72067Y66400D01*
X72358Y66133D01*
X72650Y66000D01*
X72942D01*
X73233Y66133D01*
X73483Y66333D01*
X73692Y66600D01*
G01X74433Y66800D02*
X74683Y66333D01*
X75017Y66067D01*
X75392Y66000D01*
X75725Y66067D01*
X76058Y66400D01*
X76267Y66800D01*
X76308Y67200D01*
X76225Y67667D01*
X75933Y68000D01*
X75642Y68133D01*
X75267D01*
G01X75642D02*
X75892Y68333D01*
X76100Y68667D01*
X76183Y69067D01*
X76100Y69467D01*
X75892Y69800D01*
X75517Y70000D01*
X75142Y69933D01*
X74767Y69667D01*
G01X48817Y44800D02*
X49025Y44400D01*
X49275Y44133D01*
X49567Y44000D01*
X49900Y44133D01*
X50150Y44400D01*
X50400Y44800D01*
X50483Y45333D01*
Y48000D01*
G01X52850Y44000D02*
Y48000D01*
X51308Y45133D01*
X53392D01*
G01X54817Y62800D02*
X55025Y62400D01*
X55275Y62133D01*
X55567Y62000D01*
X55900Y62133D01*
X56150Y62400D01*
X56400Y62800D01*
X56483Y63333D01*
Y66000D01*
G01X57433Y62800D02*
X57683Y62333D01*
X58017Y62067D01*
X58392Y62000D01*
X58725Y62067D01*
X59058Y62400D01*
X59267Y62800D01*
X59308Y63200D01*
X59225Y63667D01*
X58933Y64000D01*
X58642Y64133D01*
X58267D01*
G01X58642D02*
X58892Y64333D01*
X59100Y64667D01*
X59183Y65067D01*
X59100Y65467D01*
X58892Y65800D01*
X58517Y66000D01*
X58142Y65933D01*
X57767Y65667D01*
G01X58817Y88000D02*
Y92000D01*
X59858D01*
X60192Y91800D01*
X60400Y91533D01*
X60483Y91000D01*
X60400Y90467D01*
X60150Y90133D01*
X59858Y89933D01*
X58817D01*
G01X59858D02*
X60483Y88000D01*
G01X62350D02*
X62642Y88067D01*
X62975Y88267D01*
X63183Y88600D01*
X63267Y89067D01*
X63183Y89533D01*
X62933Y89933D01*
X62558Y90133D01*
X62142D01*
X61892Y90267D01*
X61683Y90600D01*
X61600Y91067D01*
X61725Y91533D01*
X62017Y91867D01*
X62350Y92000D01*
X62683Y91867D01*
X62975Y91533D01*
X63100Y91067D01*
X63017Y90600D01*
X62808Y90267D01*
X62558Y90133D01*
X62142D01*
X61767Y89933D01*
X61517Y89533D01*
X61433Y89067D01*
X61517Y88600D01*
X61725Y88267D01*
X62058Y88067D01*
X62350Y88000D01*
G01X53000Y83467D02*
X49000D01*
Y84508D01*
X49200Y84842D01*
X49467Y85050D01*
X50000Y85133D01*
X50533Y85050D01*
X50867Y84800D01*
X51067Y84508D01*
Y83467D01*
G01Y84508D02*
X53000Y85133D01*
G01Y87000D02*
X49000D01*
X49800Y86500D01*
G01X53000D02*
Y87500D01*
G01X52400Y88783D02*
X52733Y89033D01*
X52933Y89325D01*
X53000Y89700D01*
X52867Y90075D01*
X52600Y90367D01*
X52133Y90575D01*
X51600Y90617D01*
X51067Y90533D01*
X50733Y90325D01*
X50467Y90033D01*
X50400Y89742D01*
X50467Y89450D01*
X50733Y89075D01*
X49000Y89200D01*
Y90325D01*
G01X73567Y81667D02*
X73317Y81867D01*
X73025Y82000D01*
X72692D01*
X72317Y81800D01*
X72025Y81467D01*
X71817Y81067D01*
X71650Y80400D01*
X71608Y79800D01*
X71692Y79200D01*
X71817Y78800D01*
X72067Y78400D01*
X72358Y78133D01*
X72650Y78000D01*
X72942D01*
X73233Y78133D01*
X73483Y78333D01*
X73692Y78600D01*
G01X75267Y78000D02*
X75350Y78867D01*
X75475Y79600D01*
X75642Y80267D01*
X75850Y81000D01*
X76183Y82000D01*
X74517D01*
G01X69467Y130000D02*
Y134000D01*
X70508D01*
X70842Y133800D01*
X71050Y133533D01*
X71133Y133000D01*
X71050Y132467D01*
X70800Y132133D01*
X70508Y131933D01*
X69467D01*
G01X70508D02*
X71133Y130000D01*
G01X73000D02*
Y134000D01*
X72500Y133200D01*
G01Y130000D02*
X73500D01*
G01X75700Y134000D02*
X75367Y133867D01*
X75117Y133533D01*
X74950Y133133D01*
X74825Y132600D01*
X74783Y132000D01*
X74825Y131400D01*
X74950Y130867D01*
X75117Y130467D01*
X75367Y130133D01*
X75700Y130000D01*
X76033Y130133D01*
X76283Y130467D01*
X76450Y130867D01*
X76575Y131400D01*
X76617Y132000D01*
X76575Y132600D01*
X76450Y133133D01*
X76283Y133533D01*
X76033Y133867D01*
X75700Y134000D01*
G01X71567Y105667D02*
X71317Y105867D01*
X71025Y106000D01*
X70692D01*
X70317Y105800D01*
X70025Y105467D01*
X69817Y105067D01*
X69650Y104400D01*
X69608Y103800D01*
X69692Y103200D01*
X69817Y102800D01*
X70067Y102400D01*
X70358Y102133D01*
X70650Y102000D01*
X70942D01*
X71233Y102133D01*
X71483Y102333D01*
X71692Y102600D01*
G01X72642Y102467D02*
X72933Y102133D01*
X73267Y102000D01*
X73600Y102133D01*
X73892Y102533D01*
X74100Y103133D01*
X74183Y103733D01*
Y104467D01*
X74100Y105067D01*
X73892Y105600D01*
X73642Y105867D01*
X73350Y106000D01*
X73017Y105867D01*
X72767Y105600D01*
X72600Y105200D01*
X72517Y104667D01*
X72600Y104200D01*
X72808Y103733D01*
X73058Y103467D01*
X73350Y103400D01*
X73683Y103533D01*
X73933Y103867D01*
X74183Y104467D01*
G01X71567Y115667D02*
X71317Y115867D01*
X71025Y116000D01*
X70692D01*
X70317Y115800D01*
X70025Y115467D01*
X69817Y115067D01*
X69650Y114400D01*
X69608Y113800D01*
X69692Y113200D01*
X69817Y112800D01*
X70067Y112400D01*
X70358Y112133D01*
X70650Y112000D01*
X70942D01*
X71233Y112133D01*
X71483Y112333D01*
X71692Y112600D01*
G01X73350Y112000D02*
X73642Y112067D01*
X73975Y112267D01*
X74183Y112600D01*
X74267Y113067D01*
X74183Y113533D01*
X73933Y113933D01*
X73558Y114133D01*
X73142D01*
X72892Y114267D01*
X72683Y114600D01*
X72600Y115067D01*
X72725Y115533D01*
X73017Y115867D01*
X73350Y116000D01*
X73683Y115867D01*
X73975Y115533D01*
X74100Y115067D01*
X74017Y114600D01*
X73808Y114267D01*
X73558Y114133D01*
X73142D01*
X72767Y113933D01*
X72517Y113533D01*
X72433Y113067D01*
X72517Y112600D01*
X72725Y112267D01*
X73058Y112067D01*
X73350Y112000D01*
G01X69817Y147000D02*
Y151000D01*
X70858D01*
X71192Y150800D01*
X71400Y150533D01*
X71483Y150000D01*
X71400Y149467D01*
X71150Y149133D01*
X70858Y148933D01*
X69817D01*
G01X70858D02*
X71483Y147000D01*
G01X72642Y147467D02*
X72933Y147133D01*
X73267Y147000D01*
X73600Y147133D01*
X73892Y147533D01*
X74100Y148133D01*
X74183Y148733D01*
Y149467D01*
X74100Y150067D01*
X73892Y150600D01*
X73642Y150867D01*
X73350Y151000D01*
X73017Y150867D01*
X72767Y150600D01*
X72600Y150200D01*
X72517Y149667D01*
X72600Y149200D01*
X72808Y148733D01*
X73058Y148467D01*
X73350Y148400D01*
X73683Y148533D01*
X73933Y148867D01*
X74183Y149467D01*
G01X101217Y9667D02*
X100967Y9867D01*
X100675Y10000D01*
X100342D01*
X99967Y9800D01*
X99675Y9467D01*
X99467Y9067D01*
X99300Y8400D01*
X99258Y7800D01*
X99342Y7200D01*
X99467Y6800D01*
X99717Y6400D01*
X100008Y6133D01*
X100300Y6000D01*
X100592D01*
X100883Y6133D01*
X101133Y6333D01*
X101342Y6600D01*
G01X103000Y6000D02*
Y10000D01*
X102500Y9200D01*
G01Y6000D02*
X103500D01*
G01X105700D02*
Y10000D01*
X105200Y9200D01*
G01Y6000D02*
X106200D01*
G01X96467Y37000D02*
Y41000D01*
X97508D01*
X97842Y40800D01*
X98050Y40533D01*
X98133Y40000D01*
X98050Y39467D01*
X97800Y39133D01*
X97508Y38933D01*
X96467D01*
G01X97508D02*
X98133Y37000D01*
G01X100000D02*
Y41000D01*
X99500Y40200D01*
G01Y37000D02*
X100500D01*
G01X102617D02*
X102700Y37867D01*
X102825Y38600D01*
X102992Y39267D01*
X103200Y40000D01*
X103533Y41000D01*
X101867D01*
G01X96467Y24000D02*
Y28000D01*
X97508D01*
X97842Y27800D01*
X98050Y27533D01*
X98133Y27000D01*
X98050Y26467D01*
X97800Y26133D01*
X97508Y25933D01*
X96467D01*
G01X97508D02*
X98133Y24000D01*
G01X100000D02*
Y28000D01*
X99500Y27200D01*
G01Y24000D02*
X100500D01*
G01X101908Y25667D02*
X102200Y26133D01*
X102450Y26400D01*
X102783Y26533D01*
X103075Y26400D01*
X103283Y26133D01*
X103450Y25733D01*
X103492Y25267D01*
X103450Y24867D01*
X103283Y24467D01*
X103033Y24133D01*
X102742Y24000D01*
X102408Y24133D01*
X102117Y24533D01*
X101950Y25133D01*
X101908Y25800D01*
X101992Y26667D01*
X102117Y27133D01*
X102325Y27600D01*
X102617Y27933D01*
X102908Y28000D01*
X103200Y27867D01*
X103408Y27533D01*
G01X96817Y14000D02*
Y18000D01*
X97858D01*
X98192Y17800D01*
X98400Y17533D01*
X98483Y17000D01*
X98400Y16467D01*
X98150Y16133D01*
X97858Y15933D01*
X96817D01*
G01X97858D02*
X98483Y14000D01*
G01X99433Y14600D02*
X99683Y14267D01*
X99975Y14067D01*
X100350Y14000D01*
X100725Y14133D01*
X101017Y14400D01*
X101225Y14867D01*
X101267Y15400D01*
X101183Y15933D01*
X100975Y16267D01*
X100683Y16533D01*
X100392Y16600D01*
X100100Y16533D01*
X99725Y16267D01*
X99850Y18000D01*
X100975D01*
G01X74817Y16000D02*
Y20000D01*
X75858D01*
X76192Y19800D01*
X76400Y19533D01*
X76483Y19000D01*
X76400Y18467D01*
X76150Y18133D01*
X75858Y17933D01*
X74817D01*
G01X75858D02*
X76483Y16000D01*
G01X77558Y17667D02*
X77850Y18133D01*
X78100Y18400D01*
X78433Y18533D01*
X78725Y18400D01*
X78933Y18133D01*
X79100Y17733D01*
X79142Y17267D01*
X79100Y16867D01*
X78933Y16467D01*
X78683Y16133D01*
X78392Y16000D01*
X78058Y16133D01*
X77767Y16533D01*
X77600Y17133D01*
X77558Y17800D01*
X77642Y18667D01*
X77767Y19133D01*
X77975Y19600D01*
X78267Y19933D01*
X78558Y20000D01*
X78850Y19867D01*
X79058Y19533D01*
G01X74817Y25000D02*
Y29000D01*
X75858D01*
X76192Y28800D01*
X76400Y28533D01*
X76483Y28000D01*
X76400Y27467D01*
X76150Y27133D01*
X75858Y26933D01*
X74817D01*
G01X75858D02*
X76483Y25000D01*
G01X78267D02*
X78350Y25867D01*
X78475Y26600D01*
X78642Y27267D01*
X78850Y28000D01*
X79183Y29000D01*
X77517D01*
G01X96467Y71000D02*
Y75000D01*
X97508D01*
X97842Y74800D01*
X98050Y74533D01*
X98133Y74000D01*
X98050Y73467D01*
X97800Y73133D01*
X97508Y72933D01*
X96467D01*
G01X97508D02*
X98133Y71000D01*
G01X100000D02*
Y75000D01*
X99500Y74200D01*
G01Y71000D02*
X100500D01*
G01X102700D02*
X102992Y71067D01*
X103325Y71267D01*
X103533Y71600D01*
X103617Y72067D01*
X103533Y72533D01*
X103283Y72933D01*
X102908Y73133D01*
X102492D01*
X102242Y73267D01*
X102033Y73600D01*
X101950Y74067D01*
X102075Y74533D01*
X102367Y74867D01*
X102700Y75000D01*
X103033Y74867D01*
X103325Y74533D01*
X103450Y74067D01*
X103367Y73600D01*
X103158Y73267D01*
X102908Y73133D01*
X102492D01*
X102117Y72933D01*
X101867Y72533D01*
X101783Y72067D01*
X101867Y71600D01*
X102075Y71267D01*
X102408Y71067D01*
X102700Y71000D01*
G01X95467Y59000D02*
Y63000D01*
X96508D01*
X96842Y62800D01*
X97050Y62533D01*
X97133Y62000D01*
X97050Y61467D01*
X96800Y61133D01*
X96508Y60933D01*
X95467D01*
G01X96508D02*
X97133Y59000D01*
G01X99000D02*
Y63000D01*
X98500Y62200D01*
G01Y59000D02*
X99500D01*
G01X100992Y59467D02*
X101283Y59133D01*
X101617Y59000D01*
X101950Y59133D01*
X102242Y59533D01*
X102450Y60133D01*
X102533Y60733D01*
Y61467D01*
X102450Y62067D01*
X102242Y62600D01*
X101992Y62867D01*
X101700Y63000D01*
X101367Y62867D01*
X101117Y62600D01*
X100950Y62200D01*
X100867Y61667D01*
X100950Y61200D01*
X101158Y60733D01*
X101408Y60467D01*
X101700Y60400D01*
X102033Y60533D01*
X102283Y60867D01*
X102533Y61467D01*
G01X99217Y49667D02*
X98967Y49867D01*
X98675Y50000D01*
X98342D01*
X97967Y49800D01*
X97675Y49467D01*
X97467Y49067D01*
X97300Y48400D01*
X97258Y47800D01*
X97342Y47200D01*
X97467Y46800D01*
X97717Y46400D01*
X98008Y46133D01*
X98300Y46000D01*
X98592D01*
X98883Y46133D01*
X99133Y46333D01*
X99342Y46600D01*
G01X101000Y46000D02*
Y50000D01*
X100500Y49200D01*
G01Y46000D02*
X101500D01*
G01X103700Y50000D02*
X103367Y49867D01*
X103117Y49533D01*
X102950Y49133D01*
X102825Y48600D01*
X102783Y48000D01*
X102825Y47400D01*
X102950Y46867D01*
X103117Y46467D01*
X103367Y46133D01*
X103700Y46000D01*
X104033Y46133D01*
X104283Y46467D01*
X104450Y46867D01*
X104575Y47400D01*
X104617Y48000D01*
X104575Y48600D01*
X104450Y49133D01*
X104283Y49533D01*
X104033Y49867D01*
X103700Y50000D01*
G01X100817Y87800D02*
X101025Y87400D01*
X101275Y87133D01*
X101567Y87000D01*
X101900Y87133D01*
X102150Y87400D01*
X102400Y87800D01*
X102483Y88333D01*
Y91000D01*
G01X103433Y87600D02*
X103683Y87267D01*
X103975Y87067D01*
X104350Y87000D01*
X104725Y87133D01*
X105017Y87400D01*
X105225Y87867D01*
X105267Y88400D01*
X105183Y88933D01*
X104975Y89267D01*
X104683Y89533D01*
X104392Y89600D01*
X104100Y89533D01*
X103725Y89267D01*
X103850Y91000D01*
X104975D01*
G01X104467Y126000D02*
Y130000D01*
X105508D01*
X105842Y129800D01*
X106050Y129533D01*
X106133Y129000D01*
X106050Y128467D01*
X105800Y128133D01*
X105508Y127933D01*
X104467D01*
G01X105508D02*
X106133Y126000D01*
G01X107208Y129333D02*
X107458Y129733D01*
X107750Y129933D01*
X108083Y130000D01*
X108500Y129867D01*
X108792Y129533D01*
X108875Y129133D01*
X108833Y128733D01*
X108667Y128400D01*
X107833Y127733D01*
X107458Y127267D01*
X107208Y126600D01*
X107125Y126000D01*
X108875D01*
G01X110700Y130000D02*
X110367Y129867D01*
X110117Y129533D01*
X109950Y129133D01*
X109825Y128600D01*
X109783Y128000D01*
X109825Y127400D01*
X109950Y126867D01*
X110117Y126467D01*
X110367Y126133D01*
X110700Y126000D01*
X111033Y126133D01*
X111283Y126467D01*
X111450Y126867D01*
X111575Y127400D01*
X111617Y128000D01*
X111575Y128600D01*
X111450Y129133D01*
X111283Y129533D01*
X111033Y129867D01*
X110700Y130000D01*
G01X89467Y103000D02*
Y107000D01*
X90508D01*
X90842Y106800D01*
X91050Y106533D01*
X91133Y106000D01*
X91050Y105467D01*
X90800Y105133D01*
X90508Y104933D01*
X89467D01*
G01X90508D02*
X91133Y103000D01*
G01X92208Y106333D02*
X92458Y106733D01*
X92750Y106933D01*
X93083Y107000D01*
X93500Y106867D01*
X93792Y106533D01*
X93875Y106133D01*
X93833Y105733D01*
X93667Y105400D01*
X92833Y104733D01*
X92458Y104267D01*
X92208Y103600D01*
X92125Y103000D01*
X93875D01*
G01X94908Y104667D02*
X95200Y105133D01*
X95450Y105400D01*
X95783Y105533D01*
X96075Y105400D01*
X96283Y105133D01*
X96450Y104733D01*
X96492Y104267D01*
X96450Y103867D01*
X96283Y103467D01*
X96033Y103133D01*
X95742Y103000D01*
X95408Y103133D01*
X95117Y103533D01*
X94950Y104133D01*
X94908Y104800D01*
X94992Y105667D01*
X95117Y106133D01*
X95325Y106600D01*
X95617Y106933D01*
X95908Y107000D01*
X96200Y106867D01*
X96408Y106533D01*
G01X92217Y117667D02*
X91967Y117867D01*
X91675Y118000D01*
X91342D01*
X90967Y117800D01*
X90675Y117467D01*
X90467Y117067D01*
X90300Y116400D01*
X90258Y115800D01*
X90342Y115200D01*
X90467Y114800D01*
X90717Y114400D01*
X91008Y114133D01*
X91300Y114000D01*
X91592D01*
X91883Y114133D01*
X92133Y114333D01*
X92342Y114600D01*
G01X94000Y114000D02*
Y118000D01*
X93500Y117200D01*
G01Y114000D02*
X94500D01*
G01X95783Y114800D02*
X96033Y114333D01*
X96367Y114067D01*
X96742Y114000D01*
X97075Y114067D01*
X97408Y114400D01*
X97617Y114800D01*
X97658Y115200D01*
X97575Y115667D01*
X97283Y116000D01*
X96992Y116133D01*
X96617D01*
G01X96992D02*
X97242Y116333D01*
X97450Y116667D01*
X97533Y117067D01*
X97450Y117467D01*
X97242Y117800D01*
X96867Y118000D01*
X96492Y117933D01*
X96117Y117667D01*
G01X77467Y146000D02*
Y150000D01*
X78508D01*
X78842Y149800D01*
X79050Y149533D01*
X79133Y149000D01*
X79050Y148467D01*
X78800Y148133D01*
X78508Y147933D01*
X77467D01*
G01X78508D02*
X79133Y146000D01*
G01X80208Y149333D02*
X80458Y149733D01*
X80750Y149933D01*
X81083Y150000D01*
X81500Y149867D01*
X81792Y149533D01*
X81875Y149133D01*
X81833Y148733D01*
X81667Y148400D01*
X80833Y147733D01*
X80458Y147267D01*
X80208Y146600D01*
X80125Y146000D01*
X81875D01*
G01X82783Y146600D02*
X83033Y146267D01*
X83325Y146067D01*
X83700Y146000D01*
X84075Y146133D01*
X84367Y146400D01*
X84575Y146867D01*
X84617Y147400D01*
X84533Y147933D01*
X84325Y148267D01*
X84033Y148533D01*
X83742Y148600D01*
X83450Y148533D01*
X83075Y148267D01*
X83200Y150000D01*
X84325D01*
G01X88217Y140667D02*
X87967Y140867D01*
X87675Y141000D01*
X87342D01*
X86967Y140800D01*
X86675Y140467D01*
X86467Y140067D01*
X86300Y139400D01*
X86258Y138800D01*
X86342Y138200D01*
X86467Y137800D01*
X86717Y137400D01*
X87008Y137133D01*
X87300Y137000D01*
X87592D01*
X87883Y137133D01*
X88133Y137333D01*
X88342Y137600D01*
G01X90000Y137000D02*
Y141000D01*
X89500Y140200D01*
G01Y137000D02*
X90500D01*
G01X91908Y140333D02*
X92158Y140733D01*
X92450Y140933D01*
X92783Y141000D01*
X93200Y140867D01*
X93492Y140533D01*
X93575Y140133D01*
X93533Y139733D01*
X93367Y139400D01*
X92533Y138733D01*
X92158Y138267D01*
X91908Y137600D01*
X91825Y137000D01*
X93575D01*
G01X129000Y93250D02*
X128933Y92917D01*
X128667Y92625D01*
X128267Y92375D01*
X127800Y92208D01*
X127267Y92125D01*
X126733D01*
X126200Y92208D01*
X125733Y92375D01*
X125333Y92625D01*
X125067Y92917D01*
X125000Y93250D01*
X125067Y93583D01*
X125333Y93875D01*
X125733Y94125D01*
X126200Y94292D01*
X126733Y94375D01*
X127267D01*
X127800Y94292D01*
X128267Y94125D01*
X128667Y93875D01*
X128933Y93583D01*
X129000Y93250D01*
G01X127933Y93583D02*
X129000Y94083D01*
G01X125667Y95158D02*
X125267Y95408D01*
X125067Y95700D01*
X125000Y96033D01*
X125133Y96450D01*
X125467Y96742D01*
X125867Y96825D01*
X126267Y96783D01*
X126600Y96617D01*
X127267Y95783D01*
X127733Y95408D01*
X128400Y95158D01*
X129000Y95075D01*
Y96825D01*
G01X134467Y111000D02*
Y115000D01*
X135508D01*
X135842Y114800D01*
X136050Y114533D01*
X136133Y114000D01*
X136050Y113467D01*
X135800Y113133D01*
X135508Y112933D01*
X134467D01*
G01X135508D02*
X136133Y111000D01*
G01X137208Y114333D02*
X137458Y114733D01*
X137750Y114933D01*
X138083Y115000D01*
X138500Y114867D01*
X138792Y114533D01*
X138875Y114133D01*
X138833Y113733D01*
X138667Y113400D01*
X137833Y112733D01*
X137458Y112267D01*
X137208Y111600D01*
X137125Y111000D01*
X138875D01*
G01X140700D02*
Y115000D01*
X140200Y114200D01*
G01Y111000D02*
X141200D01*
G01X133417Y146800D02*
X133625Y146400D01*
X133875Y146133D01*
X134167Y146000D01*
X134500Y146133D01*
X134750Y146400D01*
X135000Y146800D01*
X135083Y147333D01*
Y150000D01*
G01X136158Y149333D02*
X136408Y149733D01*
X136700Y149933D01*
X137033Y150000D01*
X137450Y149867D01*
X137742Y149533D01*
X137825Y149133D01*
X137783Y148733D01*
X137617Y148400D01*
X136783Y147733D01*
X136408Y147267D01*
X136158Y146600D01*
X136075Y146000D01*
X137825D01*
G01X154000Y11417D02*
X150000D01*
Y12417D01*
X150200Y12750D01*
X150667Y13000D01*
X151200Y13083D01*
X151733Y13000D01*
X152133Y12792D01*
X152333Y12417D01*
Y11417D01*
G01X154000Y14033D02*
X150000D01*
Y14867D01*
X150200Y15200D01*
X150467Y15450D01*
X150867Y15658D01*
X151333Y15825D01*
X152000Y15867D01*
X152667Y15825D01*
X153133Y15658D01*
X153533Y15450D01*
X153800Y15200D01*
X154000Y14867D01*
Y14033D01*
G01X150333Y18567D02*
X150133Y18317D01*
X150000Y18025D01*
Y17692D01*
X150200Y17317D01*
X150533Y17025D01*
X150933Y16817D01*
X151600Y16650D01*
X152200Y16608D01*
X152800Y16692D01*
X153200Y16817D01*
X153600Y17067D01*
X153867Y17358D01*
X154000Y17650D01*
Y17942D01*
X153867Y18233D01*
X153667Y18483D01*
X153400Y18692D01*
G01X154000Y21183D02*
Y19517D01*
X150000D01*
Y21183D01*
G01X151933Y20517D02*
Y19517D01*
G01X154000Y24833D02*
X150000D01*
Y25667D01*
X150200Y26000D01*
X150467Y26250D01*
X150867Y26458D01*
X151333Y26625D01*
X152000Y26667D01*
X152667Y26625D01*
X153133Y26458D01*
X153533Y26250D01*
X153800Y26000D01*
X154000Y25667D01*
Y24833D01*
G01X151333Y28450D02*
X154000D01*
G01X150267D02*
X150200Y28367D01*
X150067D01*
X150000Y28450D01*
X150067Y28533D01*
X150200D01*
X150267Y28450D01*
G01X154000Y29900D02*
X151333D01*
G01X152067D02*
X151733Y30025D01*
X151467Y30233D01*
X151333Y30525D01*
X151467Y30817D01*
X151733Y31025D01*
X152067Y31150D01*
X154000D01*
G01X152067D02*
X151733Y31275D01*
X151467Y31483D01*
X151333Y31775D01*
X151467Y32067D01*
X151733Y32275D01*
X152133Y32400D01*
X154000D01*
G01Y34600D02*
X151333D01*
G01X151800D02*
X151533Y34433D01*
X151400Y34183D01*
X151333Y33892D01*
X151467Y33600D01*
X151733Y33350D01*
X152133Y33183D01*
X152667Y33100D01*
X153200Y33183D01*
X153600Y33350D01*
X153867Y33600D01*
X154000Y33892D01*
X153933Y34183D01*
X153733Y34433D01*
X153467Y34600D01*
G01X154000Y38333D02*
X150000D01*
Y39167D01*
X150200Y39500D01*
X150467Y39750D01*
X150867Y39958D01*
X151333Y40125D01*
X152000Y40167D01*
X152667Y40125D01*
X153133Y39958D01*
X153533Y39750D01*
X153800Y39500D01*
X154000Y39167D01*
Y38333D01*
G01Y42700D02*
X151333D01*
G01X151800D02*
X151533Y42533D01*
X151400Y42283D01*
X151333Y41992D01*
X151467Y41700D01*
X151733Y41450D01*
X152133Y41283D01*
X152667Y41200D01*
X153200Y41283D01*
X153600Y41450D01*
X153867Y41700D01*
X154000Y41992D01*
X153933Y42283D01*
X153733Y42533D01*
X153467Y42700D01*
G01X154000Y44067D02*
X151333D01*
G01X151867D02*
X151600Y44275D01*
X151400Y44483D01*
X151333Y44775D01*
X151400Y44983D01*
X151600Y45233D01*
G01X151333Y47350D02*
X154000D01*
G01X150267D02*
X150200Y47267D01*
X150067D01*
X150000Y47350D01*
X150067Y47433D01*
X150200D01*
X150267Y47350D01*
G01X154000Y50800D02*
X151333D01*
G01X151800D02*
X151533Y50633D01*
X151400Y50383D01*
X151333Y50092D01*
X151467Y49800D01*
X151733Y49550D01*
X152133Y49383D01*
X152667Y49300D01*
X153200Y49383D01*
X153600Y49550D01*
X153867Y49800D01*
X154000Y50092D01*
X153933Y50383D01*
X153733Y50633D01*
X153467Y50800D01*
G01X154000Y56283D02*
Y54617D01*
X150000D01*
Y56283D01*
G01X151933Y55617D02*
Y54617D01*
G01X154000Y58150D02*
X150000D01*
G01X152200Y60225D02*
Y61558D01*
X151733Y61433D01*
X151467Y61225D01*
X151333Y60933D01*
X151400Y60642D01*
X151600Y60392D01*
X152067Y60225D01*
X152467Y60142D01*
X152867D01*
X153267Y60225D01*
X153667Y60433D01*
X153933Y60683D01*
X154000Y60975D01*
X153867Y61267D01*
X153467Y61558D01*
G01X154000Y62842D02*
X151333D01*
G01X152000D02*
X151667Y63008D01*
X151400Y63258D01*
X151333Y63592D01*
X151400Y63883D01*
X151667Y64133D01*
X152133Y64258D01*
X154000D01*
G01Y67000D02*
X151333D01*
G01X151800D02*
X151533Y66833D01*
X151400Y66583D01*
X151333Y66292D01*
X151467Y66000D01*
X151733Y65750D01*
X152133Y65583D01*
X152667Y65500D01*
X153200Y65583D01*
X153600Y65750D01*
X153867Y66000D01*
X154000Y66292D01*
X153933Y66583D01*
X153733Y66833D01*
X153467Y67000D01*
G01X154000Y72150D02*
X150000D01*
X152867Y70608D01*
Y72692D01*
G01X153200Y73433D02*
X153667Y73683D01*
X153933Y74017D01*
X154000Y74392D01*
X153933Y74725D01*
X153600Y75058D01*
X153200Y75267D01*
X152800Y75308D01*
X152333Y75225D01*
X152000Y74933D01*
X151867Y74642D01*
Y74267D01*
G01Y74642D02*
X151667Y74892D01*
X151333Y75100D01*
X150933Y75183D01*
X150533Y75100D01*
X150200Y74892D01*
X150000Y74517D01*
X150067Y74142D01*
X150333Y73767D01*
G01X150667Y76258D02*
X150267Y76508D01*
X150067Y76800D01*
X150000Y77133D01*
X150133Y77550D01*
X150467Y77842D01*
X150867Y77925D01*
X151267Y77883D01*
X151600Y77717D01*
X152267Y76883D01*
X152733Y76508D01*
X153400Y76258D01*
X154000Y76175D01*
Y77925D01*
G01Y78708D02*
X150000Y79750D01*
X154000Y80792D01*
G01X152600Y80417D02*
Y79083D01*
G01X140467Y85000D02*
Y89000D01*
X141508D01*
X141842Y88800D01*
X142050Y88533D01*
X142133Y88000D01*
X142050Y87467D01*
X141800Y87133D01*
X141508Y86933D01*
X140467D01*
G01X141508D02*
X142133Y85000D01*
G01X143208Y88333D02*
X143458Y88733D01*
X143750Y88933D01*
X144083Y89000D01*
X144500Y88867D01*
X144792Y88533D01*
X144875Y88133D01*
X144833Y87733D01*
X144667Y87400D01*
X143833Y86733D01*
X143458Y86267D01*
X143208Y85600D01*
X143125Y85000D01*
X144875D01*
G01X145783Y85800D02*
X146033Y85333D01*
X146367Y85067D01*
X146742Y85000D01*
X147075Y85067D01*
X147408Y85400D01*
X147617Y85800D01*
X147658Y86200D01*
X147575Y86667D01*
X147283Y87000D01*
X146992Y87133D01*
X146617D01*
G01X146992D02*
X147242Y87333D01*
X147450Y87667D01*
X147533Y88067D01*
X147450Y88467D01*
X147242Y88800D01*
X146867Y89000D01*
X146492Y88933D01*
X146117Y88667D01*
G01X139000Y120250D02*
X138933Y119917D01*
X138667Y119625D01*
X138267Y119375D01*
X137800Y119208D01*
X137267Y119125D01*
X136733D01*
X136200Y119208D01*
X135733Y119375D01*
X135333Y119625D01*
X135067Y119917D01*
X135000Y120250D01*
X135067Y120583D01*
X135333Y120875D01*
X135733Y121125D01*
X136200Y121292D01*
X136733Y121375D01*
X137267D01*
X137800Y121292D01*
X138267Y121125D01*
X138667Y120875D01*
X138933Y120583D01*
X139000Y120250D01*
G01X137933Y120583D02*
X139000Y121083D01*
G01X138200Y122033D02*
X138667Y122283D01*
X138933Y122617D01*
X139000Y122992D01*
X138933Y123325D01*
X138600Y123658D01*
X138200Y123867D01*
X137800Y123908D01*
X137333Y123825D01*
X137000Y123533D01*
X136867Y123242D01*
Y122867D01*
G01Y123242D02*
X136667Y123492D01*
X136333Y123700D01*
X135933Y123783D01*
X135533Y123700D01*
X135200Y123492D01*
X135000Y123117D01*
X135067Y122742D01*
X135333Y122367D01*
G54D12*
G01X109579Y30315D02*
G03I-492J0D01*
G01Y66315D02*
G03I-492J0D01*
G54D13*
G01X14000Y33835D02*
Y38165D01*
G01Y52835D02*
Y57165D01*
G01X34000Y63835D02*
Y68165D01*
G01X18000Y63835D02*
Y68165D01*
G01X25878Y89000D02*
Y80142D01*
G01X21350Y84472D02*
X30406D01*
G01X25878Y90378D02*
G03X19972Y84472I0J-5906D01*
G03X26075Y78567I5909J1D01*
G03X31783Y84472I-194J5899D01*
G03X25878Y90378I-5905J1D01*
G01X35720Y85457D02*
Y83488D01*
G01X16035Y78961D02*
Y74630D01*
X35720D01*
Y75811D01*
G01X16035Y89984D02*
Y94315D01*
X35720D01*
Y93134D01*
G01X18000Y103835D02*
Y108165D01*
G01X38000Y103835D02*
Y108165D01*
G01X25878Y145000D02*
Y136142D01*
G01X21350Y140472D02*
X30406D01*
G01X25878Y146378D02*
G03X19972Y140472I0J-5906D01*
G03X26075Y134567I5909J1D01*
G03X31783Y140472I-194J5899D01*
G03X25878Y146378I-5905J1D01*
G01X35720Y141457D02*
Y139488D01*
G01X16035Y134961D02*
Y130630D01*
X35720D01*
Y131811D01*
G01X16035Y145984D02*
Y150315D01*
X35720D01*
Y149134D01*
G01X67000Y36835D02*
Y41165D01*
G01Y10835D02*
Y15165D01*
G01Y22835D02*
Y27165D01*
G01Y48835D02*
Y53165D01*
G01X71000Y87835D02*
Y92165D01*
G01X53165Y76000D02*
X48835D01*
G01X62000Y128835D02*
Y133165D01*
G01Y146835D02*
Y151165D01*
G01X88000Y9835D02*
Y14165D01*
G01Y34835D02*
Y39165D01*
G01Y19835D02*
Y24165D01*
G01Y54835D02*
Y59165D01*
G01Y70835D02*
Y75165D01*
G01X93000Y100835D02*
Y105165D01*
G01X92000Y143835D02*
Y148165D01*
G01X139992Y20276D02*
Y12008D01*
X120504D01*
X114008Y18504D01*
Y20276D01*
G01X139992Y29724D02*
Y37992D01*
X120504D01*
X114008Y31496D01*
Y29724D01*
G01X139992Y56276D02*
Y48008D01*
X120504D01*
X114008Y54504D01*
Y56276D01*
G01X139992Y65724D02*
Y73992D01*
X120504D01*
X114008Y67496D01*
Y65724D01*
G01X110000Y119835D02*
Y124165D01*
G01X142000Y91835D02*
Y96165D01*
G01Y103835D02*
Y108165D01*
M02*
